<?xml version="1.0" encoding="UTF-8"?>
<!DOCTYPE svg PUBLIC "-//W3C//DTD SVG 1.1//EN" "http://www.w3.org/Graphics/SVG/1.1/DTD/svg11.dtd">
<!-- Creator: CorelDRAW 2021 (64 Bit) -->
<svg xmlns="http://www.w3.org/2000/svg" xml:space="preserve" width="257px" height="230px" version="1.1" style="shape-rendering:geometricPrecision; text-rendering:geometricPrecision; image-rendering:optimizeQuality; fill-rule:evenodd; clip-rule:evenodd"
viewBox="0 0 146.52 131.11"
 xmlns:xlink="http://www.w3.org/1999/xlink"
 xmlns:xodm="http://www.corel.com/coreldraw/odm/2003">
 <defs>
  <style type="text/css">
   <![CDATA[
    .str1 {stroke:white;stroke-width:4.56;stroke-miterlimit:22.9256}
    .str0 {stroke:#D1CDCD;stroke-width:8.55;stroke-miterlimit:22.9256}
    .fil1 {fill:none}
    .fil2 {fill:#FEFEFE}
    .fil0 {fill:#373435}
   ]]>
  </style>
 </defs>
 <g id="Camada_x0020_1">
  <metadata id="CorelCorpID_0Corel-Layer"/>
  <g id="_2529894370272">
   <rect class="fil0 str0" x="4.27" y="4.27" width="137.97" height="122.56" rx="17.1" ry="17.1"/>
   <g>
    <line class="fil1 str1" x1="39.19" y1="118.42" x2="39.19" y2= "106.62" />
    <path class="fil1 str1" d="M26.19 118.56l0 -18.23c1.4,-5.35 3.71,-9.5 12.03,-12.03l0 0 20.79 -3.65c1.06,0.1 2.12,-0.43 2.69,-1 0.47,-0.46 0.44,-1.46 0.42,-2.11l0 -7.21"/>
    <path class="fil1 str1" d="M73.49 98.71c-7.08,-0.14 -15.45,-5.46 -14.48,-13.94l-0.57 -0.02"/>
    <path class="fil1 str1" d="M98.72 70.3c-3.15,2.34 -4.88,5.6 -5.84,9.57 -0.68,3.78 -0.6,8.4 1.33,10.48l-0.44 0.44 -24.44 24.45c2.66,2.54 5.46,3.6 9.46,2.54l3.18 -3.18 6.57 -2.05 2.83 -7.7 7.77 -0.63 4.33 -5.15c13.71,5.06 22.72,-5.53 23.21,-15.23 0.43,-8.64 -6.73,-17.7 -16.65,-17.11"/>
    <line class="fil1 str1" x1="119.81" y1="106.9" x2="119.81" y2= "118.35" />
    <ellipse class="fil2 str1" cx="112.75" cy="75.89" rx="4.99" ry="4.89"/>
    <path class="fil1 str1" d="M50.49 49.97c-0.18,-0.93 -3.49,-0.14 -3.82,1.69 -0.2,1.1 -0.41,2.81 0.76,5.55 0.17,3.78 3.09,5.87 5.69,5.46l0 0c7.44,20.42 34.31,17.53 40.41,0l0 0c1.37,0.19 3.15,-0.02 4.19,-1.42 0.69,-0.93 1.26,-2.53 1.25,-4.51 1.49,-2.88 1.14,-3.77 0.45,-5.26 -0.46,-0.98 -2.28,-1.88 -3.58,-1.72l-0.61 0.2"/>
    <path class="fil1 str1" d="M96.36 45.43c0.99,-2.68 -3.79,-8.16 -8.34,-8.33l0 0c-10.49,8.9 -18.48,9.61 -29.96,0l0 0c-2.38,-0.02 -7.16,1.61 -7.38,4.27l-0.74 3.85"/>
    <path class="fil1 str1" d="M50.61 51.13c-1.9,-8.92 -2.37,-16.27 3.21,-23.5l0 0"/>
    <path class="fil1 str1" d="M64.85 19.15c4.33,-1.58 13.89,-2.95 21.79,3.03 8.22,6.23 11.88,15.15 9.07,28.24l-0.13 0.53"/>
    <path class="fil1 str1" d="M65.21 63.81c3.95,5.08 11.59,4.98 16.1,-0.25l-1.25 1.3"/>
    <ellipse class="fil0 str1" cx="59.41" cy="23.16" rx="1.42" ry="1.39"/>
    <ellipse class="fil0 str1" cx="103.66" cy="67.8" rx="1.42" ry="1.39"/>
    <ellipse class="fil0 str1" cx="60.93" cy="50.89" rx="1.42" ry="1.39"/>
    <ellipse class="fil0 str1" cx="83.7" cy="50.94" rx="1.42" ry="1.39"/>
   </g>
  </g>
 </g>
</svg>
