<?xml version="1.0" encoding="UTF-8"?>
<!DOCTYPE svg PUBLIC "-//W3C//DTD SVG 1.1//EN" "http://www.w3.org/Graphics/SVG/1.1/DTD/svg11.dtd">
<!-- Creator: CorelDRAW 2021 (64 Bit) -->
<svg xmlns="http://www.w3.org/2000/svg" xml:space="preserve" width="257px" height="230px" version="1.1" style="shape-rendering:geometricPrecision; text-rendering:geometricPrecision; image-rendering:optimizeQuality; fill-rule:evenodd; clip-rule:evenodd"
viewBox="0 0 119.35 106.8"
 xmlns:xlink="http://www.w3.org/1999/xlink"
 xmlns:xodm="http://www.corel.com/coreldraw/odm/2003">
 <defs>
  <style type="text/css">
   <![CDATA[
    .str1 {stroke:red;stroke-width:3.71;stroke-miterlimit:22.9256}
    .str0 {stroke:#D1CDCD;stroke-width:6.96;stroke-miterlimit:22.9256}
    .fil1 {fill:none}
    .fil2 {fill:#FEFEFE}
    .fil0 {fill:black}
   ]]>
  </style>
 </defs>
 <g id="Camada_x0020_1">
  <metadata id="CorelCorpID_0Corel-Layer"/>
  <g id="_2529899156928">
   <rect class="fil0 str0" x="3.48" y="3.48" width="112.39" height="99.84" rx="13.93" ry="13.93"/>
   <g>
    <line class="fil1 str1" x1="31.92" y1="94.84" x2="31.92" y2= "85.23" />
    <path class="fil1 str1" d="M21.33 94.95l0 -14.85c1.13,-4.36 3.02,-7.74 9.79,-9.79l0 0 16.94 -2.98c0.86,0.08 1.72,-0.35 2.19,-0.81 0.38,-0.38 0.36,-1.19 0.34,-1.72l0 -5.87"/>
    <path class="fil1 str1" d="M59.86 78.78c-5.78,-0.11 -12.59,-4.44 -11.8,-11.35l-0.47 -0.02"/>
    <path class="fil1 str1" d="M80.4 55.65c-2.56,1.9 -3.97,4.56 -4.75,7.79 -0.56,3.08 -0.49,6.84 1.08,8.54l-0.36 0.36 -19.91 19.91c2.17,2.07 4.45,2.93 7.71,2.07l2.59 -2.59 5.36 -1.67 2.3 -6.27 6.33 -0.52 3.52 -4.19c11.17,4.12 18.51,-4.5 18.91,-12.41 0.35,-7.04 -5.48,-14.41 -13.56,-13.94"/>
    <line class="fil1 str1" x1="97.59" y1="85.46" x2="97.59" y2= "94.78" />
    <ellipse class="fil2 str1" cx="91.83" cy="60.2" rx="4.06" ry="3.98"/>
    <path class="fil1 str1" d="M41.12 39.08c-0.15,-0.75 -2.85,-0.11 -3.11,1.38 -0.17,0.9 -0.34,2.29 0.62,4.52 0.13,3.08 2.51,4.78 4.63,4.45l0 0c6.07,16.63 27.95,14.27 32.92,0l0 0c1.11,0.15 2.56,-0.02 3.41,-1.16 0.57,-0.76 1.02,-2.06 1.02,-3.67 1.22,-2.35 0.93,-3.08 0.36,-4.29 -0.37,-0.79 -1.85,-1.53 -2.91,-1.39l-0.5 0.15"/>
    <path class="fil1 str1" d="M78.48 35.39c0.81,-2.19 -3.08,-6.65 -6.79,-6.79l0 0c-8.55,7.25 -15.05,7.83 -24.4,0l0 0c-1.94,-0.02 -5.84,1.31 -6.02,3.48l-0.6 3.14"/>
    <path class="fil1 str1" d="M41.22 40.03c-1.55,-7.27 -1.94,-13.26 2.62,-19.14l0 0"/>
    <path class="fil1 str1" d="M52.81 13.98c3.53,-1.29 11.32,-2.4 17.75,2.47 6.7,5.07 9.68,12.34 7.39,23l-0.1 0.43"/>
    <path class="fil1 str1" d="M53.11 50.36c3.22,4.14 9.44,4.05 13.11,-0.21l-1.01 1.06"/>
    <ellipse class="fil2 str1" cx="48.38" cy="17.25" rx="1.16" ry="1.14"/>
    <ellipse class="fil2 str1" cx="84.43" cy="53.61" rx="1.16" ry="1.14"/>
    <ellipse class="fil2 str1" cx="49.62" cy="39.83" rx="1.16" ry="1.14"/>
    <ellipse class="fil2 str1" cx="68.17" cy="39.88" rx="1.16" ry="1.14"/>
   </g>
  </g>
 </g>
</svg>
