<?xml version="1.0" encoding="UTF-8"?>
<!DOCTYPE svg PUBLIC "-//W3C//DTD SVG 1.1//EN" "http://www.w3.org/Graphics/SVG/1.1/DTD/svg11.dtd">
<!-- Creator: CorelDRAW 2021 (64 Bit) -->
<svg xmlns="http://www.w3.org/2000/svg" xml:space="preserve" width="300px" height="300px" version="1.1" style="shape-rendering:geometricPrecision; text-rendering:geometricPrecision; image-rendering:optimizeQuality; fill-rule:evenodd; clip-rule:evenodd"
viewBox="0 0 112.33 112.33"
 xmlns:xlink="http://www.w3.org/1999/xlink"
 xmlns:xodm="http://www.corel.com/coreldraw/odm/2003">
 <defs>
  <style type="text/css">
   <![CDATA[
    .fil0 {fill:#00AFF0}
    .fil8 {fill:#2A738F}
    .fil1 {fill:#363435}
    .fil2 {fill:#5D5B5C}
    .fil5 {fill:#6A79A6}
    .fil4 {fill:#817F80}
    .fil3 {fill:#ABABAB}
    .fil6 {fill:#D2D2D2}
    .fil7 {fill:#F2F2F2}
   ]]>
  </style>
 </defs>
 <g id="Camada_x0020_1">
  <metadata id="CorelCorpID_0Corel-Layer"/>
  <g id="_1583791191424">
   <path class="fil0" d="M55.61 73.58c1.15,0.22 1.94,0.55 1.86,1.93 -0.09,1.38 -0.95,1.73 -1.66,2.32 -1.31,1.09 -0.74,5.12 -0.74,7.15 0,1.37 0.34,6.59 -0.43,7.34 -0.9,0.88 -3.28,2.77 -4.71,3.23l-0.48 0.26c-0.52,0.58 -2.74,1.4 -3.4,1.49 -1.44,0.89 -5.09,1.4 -7.32,1.25l0.01 -3.89c0.65,-0.29 1.06,-0.16 1.74,-0.68 1.51,-1.15 1.16,-4.95 1.16,-6.59l-0.01 -7.74c-0.08,-1.05 -0.55,-1.24 -0.49,-1.9 -1.46,-0.15 -4.34,-0.73 -3.7,-2.83 0.1,-0.32 0.31,-0.59 0.7,-0.83 0.33,-0.22 0.77,-0.36 1.26,-0.46 1.69,-0.33 15.56,-0.29 16.21,-0.05zm45.04 -25.39c1.52,0.19 1.9,2.29 0.62,3.21 -0.86,0.61 -2.37,1.04 -3.28,1.88 -2.3,2.13 -2.51,5.31 -3.32,7.16l-0.1 0.47 -4.75 17.36c-0.51,-0.59 -1.3,-4.08 -1.61,-5.13 -0.51,-1.74 0.04,-2.94 0.76,-5.32 1.06,-3.48 1.8,-7.22 2.88,-10.71 1.59,-5.07 -2.49,-4.86 -3.52,-5.74 -0.62,-0.53 -0.85,-1.75 -0.21,-2.46 1.05,-1.18 3.81,-0.88 5.81,-0.88 1.43,-0.01 5.78,-0.32 6.72,0.16zm-49.85 3.51c-0.03,-0.32 -0.08,-0.2 0.3,-0.22 0.47,-0.46 1.7,-2.21 2.28,-2.43 1.9,-0.69 2.36,0.86 2.38,2.39 0.05,3.2 0,6.44 0,9.64 0.01,2.4 0.69,7.99 -2.94,6.36 -0.91,-0.4 -1.24,-2.15 -1.59,-3.22 -0.44,-1.36 -1.01,-2.28 -1.41,-3.42 -0.97,-1.4 -1.35,-2.57 -2.41,-3.88l-0.14 0c-1.15,0.09 -1.49,-0.63 -2.74,0.68 -0.51,0.54 -1.22,1.56 -2.32,1.37 -2.09,-0.37 -1.63,-3.74 -1.63,-5.98 -1.7,-0.43 -1.33,0.18 -1.34,-2.06 0,-2.18 -0.38,-1.77 1.32,-1.75 0.06,-1.44 -0.19,-5.74 0.16,-6.74 0.56,-1.56 3.18,-2.53 3.5,-0.16 0.32,0.39 0.36,0.82 0.48,1.29 0.58,2.11 1.46,3.61 2.42,5.35 0.21,0.39 0.33,0.55 0.6,0.93 0.41,0.57 0.46,0.63 0.37,0.98 1.21,0.5 1.2,0.61 2.71,0.87zm-16.94 41.76c0.34,0.06 1.7,1.02 2,1.24 0.14,1.3 0.19,3.02 -0.16,4.1l-0.19 -0.09c-1,-0.24 -0.72,0.11 -1.18,-0.24 -0.82,0.02 -3.93,-0.73 -4.54,-1.46 -0.73,0.11 -0.27,0.07 -0.34,-0.17 -0.72,0.1 -0.27,0.07 -0.36,-0.17 -0.7,0.1 -0.25,0.07 -0.41,-0.16 -1.67,-0.22 -4.06,-2.58 -5.18,-3.71 -0.8,-0.81 -1.05,-0.89 -1.31,-1.76 -0.53,0.13 -0.21,0.14 -0.36,-0.31 -1.1,-0.59 -3.21,-5.49 -3.76,-7.12 -1.87,-5.49 -1.76,-13.69 0.08,-19.22 0.7,-2.1 2.4,-5.95 3.67,-7.16 0.02,-0.43 -0.11,-0.42 0.24,-0.26 -0.12,-0.33 -0.17,-0.26 0.16,-0.18 0.24,-0.66 0.37,-0.8 1.07,-1.5l0.43 -0.38c0.15,-0.53 0.32,-0.92 0.93,-0.81 0.03,-0.04 0.07,-0.13 0.09,-0.1l2.18 -1.82c0.25,-0.38 0.03,-0.21 0.5,-0.32 0.46,-0.67 4.55,-2.44 5.53,-2.37 0.07,-0.61 1.15,-0.5 1.81,-0.54 1.12,-0.07 1.2,-0.39 1.95,0.2 -0.26,0.95 -0.07,2.44 -0.14,3.61 -0.62,0.47 -2.21,0.66 -2.79,2.72 -0.55,1.94 -0.29,13.74 -0.29,16.26 0,5.13 -0.18,14.3 0.01,19.27 0.04,1.13 0.37,1.41 0.36,2.45zm19.15 -77.08c-0.03,0.9 -0.34,1.12 -0.35,2.22 0,0.81 0.23,1.5 0.16,2.22 0.3,0.16 0.07,-0.3 0.45,0.43 0.12,0.24 0.1,0.32 0.15,0.56 0.44,0.21 0.87,0.77 1.27,1.12 1.85,1.61 3.77,2.17 4.31,2.62l5.52 2.36c0.31,0.19 0.09,0.01 0.28,0.23 0.53,-0.04 0.26,-0.11 0.35,0.18 0.54,-0.04 0.26,-0.08 0.34,0.15 0.57,-0.09 0.26,-0.11 0.39,0.15l0.35 0.17 0.65 0.37 0.34 0.16 0.33 0.2 0.54 0.32 0.26 0.09 0.21 0.21c1.15,0.49 2.42,1.95 3.26,2.91l0.02 0.06 0.34 0.35 0.15 0.19 0.12 0.22 0.12 0.22c0.26,-0.01 0.19,-0.05 0.1,0.23 0.31,-0.03 0.25,-0.09 0.17,0.22 0.3,-0.09 0.19,-0.12 0.23,0.23 1.03,0.92 2.14,4.05 2.43,5.87 0.19,1.23 0.21,2.69 0.07,3.98 -0.15,1.38 -0.57,2.33 -0.71,3.36 1.64,0.15 5.85,-0.33 6.9,0.34l0.61 0.2c0.3,0.7 1.47,1.94 -0.49,3.12 -2.7,1.63 -1.85,2.23 -0.42,7.61 1.04,3.88 2.48,8.3 3.33,12.27 0.13,0.55 0.26,0.59 0.49,1.33 0.13,0.44 0.31,1.07 0.42,1.48 0.3,1.12 0.59,1.96 0.88,3.04l1.69 6.09c0.07,0.7 -1.27,5.21 -1.53,6.19l-1.61 6.19 -9.26 -0.02c-0.31,-0.57 -0.67,-1.89 -0.9,-2.75 -0.16,-0.62 -0.34,-1.25 -0.52,-1.88 -0.18,-0.61 -0.14,-0.31 -0.29,-0.89l-1.31 -4.7 -1.5 -4.89c-0.64,-2.47 -6.48,-21.41 -6.46,-22.22 -0.26,0.02 -0.17,0.07 -0.23,-0.2 -0.92,0.07 -3.66,1.31 -6.69,1.03l0.02 -3.92c1.03,-0.39 1.25,-0.33 2.37,-0.86 0.88,-0.42 2.01,-0.98 2.4,-1.89 -0.35,-0.36 -0.96,-0.61 -1.47,-0.89 -0.67,-0.37 -0.92,-0.37 -1.05,-1.21 -0.22,-1.46 0.85,-2.34 2.08,-2.28 0.23,-0.2 -0.08,-0.08 0.32,-0.2 0.18,-0.05 0.27,-0.04 0.45,-0.06 -0.03,-0.52 -0.1,-0.55 -0.3,-0.84 -0.02,-0.02 -0.24,-0.29 -0.24,-0.29 -0.2,-0.22 -0.04,-0.07 -0.3,-0.3 -0.35,-0.5 -0.65,-0.8 -1.2,-1.12l-0.21 -0.15 -0.17 -0.15 -0.32 -0.22 -0.99 -0.54 -10.32 -4.99 -0.2 -0.14c-0.92,-0.4 -2.27,-1.43 -2.93,-2.06l-0.47 -0.4c-0.51,-0.41 -1.44,-1.11 -1.52,-1.74 -0.28,0.03 -0.23,0.09 -0.16,-0.18 -0.32,0.09 -0.25,0.13 -0.16,-0.19 -0.31,0.08 -0.23,0.12 -0.14,-0.21 -0.29,-0.02 -0.21,0.25 -0.23,-0.28 -0.31,0.06 -0.19,0.1 -0.22,-0.27 -0.67,-0.57 -1.58,-2.77 -1.89,-3.99 -0.46,-1.84 -0.6,-3.43 -0.49,-5.51 0.13,-2.77 1.82,-7.34 3.21,-8.55 0,-0.36 -0.11,-0.34 0.2,-0.22 -0.09,-0.3 -0.14,-0.24 0.17,-0.18 -0.07,-0.29 -0.13,-0.25 0.15,-0.18 -0.07,-0.32 -0.14,-0.27 0.17,-0.18 -0.1,-0.33 -0.16,-0.27 0.17,-0.17l0.12 -0.23c0.02,-0.03 0.05,-0.08 0.07,-0.11 0.43,-0.65 1.53,-1.47 2.18,-1.81l0.14 -0.15 0.21 -0.13 0.23 -0.14 0.81 -0.38c0.45,-0.39 2.1,-1.14 2.83,-1.09 0.26,-0.42 0.15,-0.5 0.9,-0.34 0.16,-0.43 -0.16,-0.06 0.32,-0.2 0.34,-0.1 -0.12,-0.07 0.4,0.03 0.1,-0.35 -0.14,-0.05 0.3,-0.18 0.37,-0.11 -0.22,-0.07 0.4,0.02 0.46,-0.52 3.12,-0.72 3.59,-0.48l-0.04 4.07c-0.31,0.19 -0.85,0.23 -1.27,0.42l-0.88 0.46c-1.18,0.58 -1.38,1.42 -2,1.66zm11.97 -5.38c0.64,0.15 1.4,0.49 2.08,0.77 1.14,0.47 1.18,0.33 2.46,0.53 0,-0.3 -0.06,-0.22 0.26,-0.13 -0.09,-0.32 -0.16,-0.28 0.16,-0.18 -0.11,-0.34 -0.18,-0.26 0.17,-0.26 0.4,-1.3 3.84,-3.64 3.84,1.88 0,2.93 -0.01,5.85 -0.01,8.78 0,1.56 0.2,2.76 -0.68,3.75 -0.84,0.95 -2.19,0.9 -2.97,-0.06 -0.45,-0.54 -0.8,-2.48 -1.13,-3.38 -0.39,-1.08 -1,-2.02 -1.38,-2.85 -0.28,0 -0.21,0.06 -0.15,-0.22l-0.35 -0.48 -0.26 -0.29 -0.11 -0.23 -0.25 -0.28 -0.14 -0.19 -0.15 -0.19c-0.47,-0.47 -0.21,-0.08 -0.45,-0.62l-0.16 -0.15c-0.26,0 -0.2,0.07 -0.15,-0.19 -0.29,0.04 -0.24,0.1 -0.18,-0.17 -0.29,0.05 -0.23,0.11 -0.18,-0.18 -0.27,0.06 -0.21,0.12 -0.21,-0.15l-0.13 -0.17c-0.65,-0.26 -1.09,-0.77 -1.76,-1.18 -3.18,-1.94 -3.47,-0.52 -3.48,-2.39 -0.01,-0.84 -0.06,-2.09 0.09,-2.89 0.91,-0.03 3.6,0.48 4.69,0.89 0.05,0.01 0.22,0.09 0.26,0.1 0.03,0.02 0.11,0.11 0.13,0.07 0.03,-0.04 0.1,0.04 0.14,0.06zm-11.46 -5.35c-7.78,0.65 -13.17,1.81 -19.95,5.22 -11.46,5.77 -19.16,14.49 -24.31,26.26 -2.63,6.01 -3.89,13.83 -3.59,21.72 0.55,15.14 8.59,27.48 16.16,34.42 8.57,7.85 20.42,13.93 37.19,13.36 9.88,-0.34 20.34,-4.54 27.55,-10.09 4.81,-3.69 8.97,-7.99 12.18,-13.09 1.64,-2.62 3.04,-5.2 4.33,-8.39 2.66,-6.52 3.89,-13.46 3.59,-21.72 -0.55,-14.98 -8.73,-27.62 -16.2,-34.38 -9.35,-8.47 -23.02,-14.48 -36.95,-13.31z"/>
   <path class="fil1" d="M8.14 85.25l2.26 3.53c0.02,-0.03 0.06,0.08 0.1,0.12 -0.74,-1.4 -1.26,-1.76 -1.77,-2.68l-0.59 -0.97zm1.32 -60.35c-0.19,0.17 -0.13,0.08 -0.38,0.37 -0.16,0.2 -0.07,0.07 -0.21,0.3 -0.34,0.54 -0.23,0.32 -0.38,0.9 0.03,-0.04 0.07,-0.14 0.08,-0.11l0.28 -0.45c0.24,-0.44 0.18,-0.32 0.32,-0.77l0.19 0.33c0.18,0.74 0.25,0.18 -0.31,0.95 -0.25,0.34 -0.47,0.73 -0.67,1.05 -9.07,14.95 -10.43,34.16 -3.55,50.31 1.07,2.52 3.52,7.41 5.13,9.49l1.2 1.71c1.28,1.9 4.89,6.02 6.48,7.44 8.2,7.3 15.44,11.63 27.46,14.32 7.77,1.73 17.6,1.34 25.06,-0.68 3.85,-1.05 6.83,-2.15 10.2,-3.75 2.65,-1.26 6.49,-3.54 8.72,-5.18 3.16,-2.33 6.51,-5.43 9.06,-8.32 1.63,-1.86 2.36,-2.89 3.73,-4.86l2.3 -3.54c0.02,-0.03 0.05,-0.07 0.07,-0.1 2.67,-4 5.53,-12.29 6.53,-17.05 2.1,-9.94 1.17,-20.99 -2.29,-30.35 -0.66,-1.78 -1.37,-3.31 -2.14,-4.95 -0.71,-1.54 -1.55,-3.13 -2.36,-4.48l-2.07 -3.1c-2.2,-3.23 -3.8,-4.96 -6.33,-7.6 -0.32,-0.34 -0.58,-0.67 -0.91,-0.98 -3.3,-3.13 -4.35,-3.64 -7.77,-6.15 -1.39,-1.02 -2.87,-1.72 -4.34,-2.54 -4.48,-2.48 -10.25,-4.66 -15.37,-5.6 -15.93,-2.93 -31.04,0.41 -43.88,9.61l-7.45 6.47c-1.45,1.45 -5.43,6.32 -6.08,7.87 -0.81,-0.62 -0.15,-0.04 -0.32,-0.56zm12.31 -13.16c-0.8,0.31 -0.9,0.46 -1.47,1.02 -0.03,0.03 -0.08,0.08 -0.1,0.1l-0.2 0.21c0.27,-0.16 0.3,-0.16 0.5,-0.31l0.96 -0.77c0.21,-0.16 0.16,-0.11 0.31,-0.25zm65.7 -2.27c-0.26,-0.31 0.14,0.01 -0.38,-0.38 -0.33,-0.25 0.12,0.02 -0.36,-0.18 0.09,0.08 0.15,0.18 0.27,0.27 0.41,0.32 -0.14,0.04 0.47,0.29zm15.59 15.69l-1.03 -1.54c0.17,0.38 0.24,0.5 0.5,0.86l0.53 0.68zm1.65 59.46l0.09 -0.3 0.08 -0.27 0.18 -0.33 0.21 -0.31 0.2 -0.31 0.2 -0.32 0.21 -0.31 0.18 -0.32 0.17 -0.34 0.09 -0.3 -0.09 0.3 -0.17 0.34 -0.18 0.32 -0.21 0.31 -0.2 0.32 -0.2 0.31 -0.21 0.31 -0.18 0.33 -0.08 0.27 -0.09 0.3c-0.43,-0.23 -0.34,-0.27 -0.18,0.19 0.29,0 0.25,0.08 0.18,-0.19zm-2.51 3.74c0.36,-0.22 0.16,0.22 0.32,-0.28 0.25,0 0.19,0.05 0.12,-0.19 0.28,0 0.19,0.05 0.12,-0.27l0.24 -0.26c0.31,0.05 0.2,0.08 0.12,-0.26l0.04 -0.28 0.26 -0.26 0.25 -0.25 0.05 -0.32 0.26 -0.26 0.07 -0.26 0.24 -0.29 0.12 -0.24 -0.12 0.24 -0.24 0.29 -0.07 0.26 -0.26 0.26 -0.05 0.32 -0.25 0.25 -0.26 0.26 -0.04 0.28 -0.12 0.26c-0.33,0.01 -0.16,-0.17 -0.24,0.26 -0.29,-0.03 -0.19,-0.07 -0.12,0.27l-0.12 0.19c-0.58,-0.13 -0.28,-0.38 -0.32,0.28zm-18.52 16.84l-0.29 0.05 -0.32 0.2 -0.32 0.19 -0.31 0.22 -0.31 0.2 -0.37 0.15 -0.34 0.17 -0.35 0.17 -0.35 0.17 -0.36 0.15 -0.35 0.17 -0.37 0.15 -0.37 0.13 -0.37 0.19 0.37 -0.19 0.37 -0.13 0.37 -0.15 0.35 -0.17 0.36 -0.15 0.35 -0.17 0.35 -0.17 0.34 -0.17 0.37 -0.15 0.31 -0.2 0.31 -0.22 0.32 -0.19 0.32 -0.2 0.29 -0.05c0.32,0.09 0.27,0.19 0.27,-0.11 0.81,0.05 0.08,0.08 0.31,-0.21l0.34 -0.18c0.3,0.08 0.21,0.13 0.21,-0.19 -0.29,0.03 -0.25,-0.06 -0.21,0.19 -0.51,0.04 -0.32,-0.09 -0.34,0.18 -0.78,-0.14 -0.41,-0.2 -0.31,0.21l-0.27 0.11zm-30.16 -99.55c13.93,-1.17 27.6,4.84 36.95,13.31 7.47,6.76 15.65,19.4 16.2,34.38 0.3,8.26 -0.93,15.2 -3.59,21.72 -1.29,3.19 -2.69,5.77 -4.33,8.39 -3.21,5.1 -7.37,9.4 -12.18,13.09 -7.21,5.55 -17.67,9.75 -27.55,10.09 -16.77,0.57 -28.62,-5.51 -37.19,-13.36 -7.57,-6.94 -15.61,-19.28 -16.16,-34.42 -0.3,-7.89 0.96,-15.71 3.59,-21.72 5.15,-11.77 12.85,-20.49 24.31,-26.26 6.78,-3.41 12.17,-4.57 19.95,-5.22z"/>
   <path class="fil2" d="M22.19 91.04c-0.07,-0.4 0.46,-0.33 -0.36,-0.31 0.15,0.45 -0.17,0.44 0.36,0.31 0.26,0.87 0.51,0.95 1.31,1.76 1.12,1.13 3.51,3.49 5.18,3.71 0.81,-0.13 0.31,-0.09 0.41,0.16 0.77,-0.19 0.27,-0.09 0.36,0.17 0.72,-0.18 0.25,-0.09 0.34,0.17 0.35,-0.25 0.16,0.13 0.19,-0.64 0,-0.03 0,-0.08 0,-0.13l0.07 -44.79c0.14,-0.51 -0.13,-0.18 0.3,-0.46 -0.8,0.06 0.27,-0.36 -1.29,0.29 -0.61,0.25 -1.01,0.53 -1.64,0.58 -0.28,0.43 0.27,0.16 -0.5,0.32l-2.18 1.82c-0.02,-0.03 -0.06,0.06 -0.09,0.1 -0.26,0.39 -0.51,0.62 -0.93,0.81l-0.43 0.38c-0.7,0.7 -0.83,0.84 -1.07,1.5 -0.33,-0.08 -0.28,-0.15 -0.16,0.18 -0.35,-0.16 -0.22,-0.17 -0.24,0.26 0.41,0 0.37,0.11 0.24,-0.26 0.34,0.14 0.26,0.17 0.16,-0.18l0.25 -0.01c-0.43,0.82 -0.09,0.12 -0.43,0.51 -0.18,0.19 -0.09,0.03 -0.25,0.31 -0.03,0.04 -0.05,0.11 -0.06,0.15l0.67 -0.22c0.01,-0.01 0.06,-0.04 0.08,-0.05 0.4,-0.25 -0.15,0 0.14,-0.08 -0.47,1.17 -0.16,14.07 -0.16,16.58 0,1.81 -0.16,16.18 0.08,16.68 0.21,0.25 0.02,-0.05 -0.04,0.06 -0.16,0.32 0.06,0.46 -0.31,0.32z"/>
   <path class="fil3" d="M74.97 93.07c0.23,0.86 0.59,2.18 0.9,2.75l9.26 0.02 1.61 -6.19c0.26,-0.98 1.6,-5.49 1.53,-6.19l-1.69 -6.09c-0.29,-1.08 -0.58,-1.92 -0.88,-3.04 -0.11,-0.41 -0.29,-1.04 -0.42,-1.48 -0.23,-0.74 -0.36,-0.78 -0.49,-1.33 -0.85,-3.97 -2.29,-8.39 -3.33,-12.27 -1.43,-5.38 -2.28,-5.98 0.42,-7.61 1.96,-1.18 0.79,-2.42 0.49,-3.12l-0.61 -0.2 -1.94 -0.14c-0.02,0.03 -0.04,0.09 -0.05,0.11 -0.2,0.46 -0.11,0.8 -0.22,0.49 -0.01,-0.03 -0.05,0.09 -0.07,0.12l-1.13 0.23c-0.18,13.91 -0.07,29.43 -0.01,43.59 0.02,2.67 0.19,2.03 -0.5,2.16l1.44 0.08c0.38,0.09 0.18,0.02 0.4,0.17l-1 0.28c-0.6,0.16 -0.8,0.48 -2.31,0.33l-0.49 -0.09 -0.55 -1.46c-0.09,-0.33 -0.23,-0.82 -0.36,-1.12z"/>
   <path class="fil4" d="M72.85 85.6l1.31 4.7c0.15,0.58 0.11,0.28 0.29,0.89 0.18,0.63 0.36,1.26 0.52,1.88 0.13,0.3 0.27,0.79 0.36,1.12l0.55 1.46 0.49 0.09c1.51,0.15 1.71,-0.17 2.31,-0.33l1 -0.28c-0.22,-0.15 -0.02,-0.08 -0.4,-0.17l-1.44 -0.08c0.69,-0.13 0.52,0.51 0.5,-2.16 -0.06,-14.16 -0.17,-29.68 0.01,-43.59l1.13 -0.23c0.02,-0.03 0.06,-0.15 0.07,-0.12 0.11,0.31 0.02,-0.03 0.22,-0.49 0.01,-0.02 0.03,-0.08 0.05,-0.11l1.94 0.14 0.61 0.2 -0.61 -0.2c-1.05,-0.67 -5.26,-0.19 -6.9,-0.34l-3.03 0.05 -0.61 0.04c0.06,0.03 0.12,0.05 0.17,0.07 0.05,0.01 0.11,0.04 0.17,0.06l0.98 0.14c0.27,0.03 0.67,0.07 1.04,0.09 -0.6,0.17 -0.39,-0.06 -0.49,0.57l-0.03 30.6c-0.4,0.22 -0.7,-0.41 -0.67,1.6 0.03,2.26 1.27,4.42 1.33,6.11 -0.42,-0.58 -0.03,-1.1 -0.87,-1.71z"/>
   <path class="fil4" d="M53.61 10.25c-0.07,0.05 -0.09,0.11 -0.4,0.21 -0.89,0.26 0.13,0.05 -0.3,-0.05 -0.03,0.02 -0.1,0.12 -0.4,0.2 -0.81,0.23 0.2,0.05 -0.32,-0.03 -0.27,0.28 0.36,-0.01 -0.44,0.27 -0.29,0.11 -0.31,0.05 -0.46,0.07 -0.73,-0.05 -2.38,0.7 -2.83,1.09l-0.81 0.38 -0.23 0.14 -0.21 0.13 -0.14 0.15 0.14 -0.15 0.21 -0.13 0.23 -0.14 0.81 -0.38c1.25,-0.3 0.51,-0.04 1.61,0.05 -0.44,1.02 -0.16,23.11 -0.16,26.35 -0.67,0.06 -0.52,-0.14 -0.47,0.83 -0.24,0.23 0.37,0.23 -0.4,0.17l-0.2 -0.14 0.2 0.14 10.32 4.99 0.99 0.54 0.32 0.22 0.17 0.15 0.21 0.15c0.55,0.32 0.85,0.62 1.2,1.12 -0.51,-0.44 -0.64,-0.65 -1.2,-1.12l-0.21 -0.15 -0.17 -0.15 -0.32 -0.22c-0.45,-0.2 -0.57,-0.32 -0.99,-0.54 -0.79,-0.57 -0.25,0.02 -0.48,-0.97 -0.25,-1.06 -0.14,-0.49 -0.01,-1.31 0.12,-0.72 -0.11,-0.59 -0.77,-0.76 0.03,-0.04 0.07,-0.14 0.08,-0.11l0.26 -13.7c0.22,-0.17 -0.28,-0.23 0.65,-0.26 -0.32,-0.2 -0.48,-0.21 -0.82,-0.38 0.09,-0.56 0.14,-0.37 0.01,-0.74 0.41,-0.22 0.8,0.22 0.72,-0.62 -0.54,-0.45 -2.46,-1.01 -4.31,-2.62 -0.4,-0.35 -0.83,-0.91 -1.27,-1.12 -0.31,-0.18 -0.1,0.27 -0.48,-0.44 -0.16,-0.31 -0.08,-0.28 -0.12,-0.55 -0.09,-0.1 -0.09,0.06 -0.28,-0.43 -0.25,-0.67 -0.27,-2.33 0.05,-3.23l0.42 -0.78c0.15,-0.83 0.95,-1.47 1.63,-1.82l2.14 -1.12 0 -3.44c-1.93,0 -2.22,0.49 -3.17,0.25z"/>
   <path class="fil2" d="M64.89 58.49c0.13,-1.11 0.05,-0.34 -0.23,-0.62l0 0.42c0.06,0.27 -0.03,0.22 0.23,0.2 -0.02,0.81 5.82,19.75 6.46,22.22l1.5 4.89c0.84,0.61 0.45,1.13 0.87,1.71 -0.06,-1.69 -1.3,-3.85 -1.33,-6.11 -0.03,-2.01 0.27,-1.38 0.67,-1.6l0.03 -30.6c0.1,-0.63 -0.11,-0.4 0.49,-0.57 -0.37,-0.02 -0.77,-0.06 -1.04,-0.09l-0.98 -0.14c-0.06,-0.02 -0.12,-0.05 -0.17,-0.06 -0.05,-0.02 -0.11,-0.04 -0.17,-0.07l-7.65 -0.08 -0.48 0.02c-0.18,0.02 -0.27,0.01 -0.45,0.06 -0.4,0.12 -0.09,0 -0.32,0.2 1.34,-0.01 2.26,0.11 3.52,0.18l-1.14 0.22c0.02,0.02 0.07,0.06 0.1,0.08 0.02,0.02 0.07,0.05 0.09,0.07 0.29,0.26 0.13,0.02 0.21,0.28l0.13 8.73c0.05,0.37 -0.04,0.1 0.06,0.43l0.15 0.84 -0.48 -0.51c-0.01,-0.06 -0.05,-0.07 -0.07,-0.1z"/>
   <path class="fil4" d="M32.95 49.49c-0.98,-0.07 -5.07,1.7 -5.53,2.37 -0.47,0.11 -0.25,-0.06 -0.5,0.32 0.77,-0.16 0.22,0.11 0.5,-0.32 0.63,-0.05 1.03,-0.33 1.64,-0.58 1.56,-0.65 0.49,-0.23 1.29,-0.29 -0.43,0.28 -0.16,-0.05 -0.3,0.46l-0.07 44.79c0,0.05 0,0.1 0,0.13 -0.03,0.77 0.16,0.39 -0.19,0.64 -0.09,-0.26 0.38,-0.35 -0.34,-0.17 -0.09,-0.26 0.41,-0.36 -0.36,-0.17 -0.1,-0.25 0.4,-0.29 -0.41,-0.16 0.16,0.23 -0.29,0.26 0.41,0.16 0.09,0.24 -0.36,0.27 0.36,0.17 0.07,0.24 -0.39,0.28 0.34,0.17 0.61,0.73 3.72,1.48 4.54,1.46l1.12 -0.08c0.24,-0.68 0.14,-2.8 0,-3.67 -0.67,-0.13 -1.43,-0.73 -1.59,-1.26 -0.48,-0.47 -0.56,-1.31 -0.65,-2.11 -0.23,-1.98 -0.08,-26.95 -0.08,-30.44 0,-3.58 -0.18,-7.78 3.12,-8.12 -0.01,-0.62 0.01,-1.23 0.01,-1.86 0.01,-0.56 0.06,-1.15 -0.15,-1.69 -1.51,-0.54 -1.99,0.28 -3.16,0.25z"/>
   <path class="fil5" d="M8.49 26.47c-4.79,7.33 -8.42,18 -8.49,29.28 -0.07,11.58 3.32,21.59 8.14,29.5l0.59 0.97c0.51,0.92 1.03,1.28 1.77,2.68 0.61,0.68 1.16,1.58 1.81,2.37 3.78,4.6 8.06,8.56 13.09,11.85 6.13,4 13.23,6.95 20.79,8.29 1.35,0.24 6.75,0.68 7.36,0.92l5.41 0c0.93,-0.37 4.21,-0.46 5.57,-0.66 1.78,-0.27 3.42,-0.59 5.18,-1.03 1.61,-0.41 3.25,-0.87 4.77,-1.41 1.48,-0.52 3.1,-1.28 4.42,-1.72l0.37 -0.19 0.37 -0.13 0.37 -0.15 0.35 -0.17 0.36 -0.15 0.35 -0.17 0.35 -0.17 0.34 -0.17 0.37 -0.15 0.31 -0.2 0.31 -0.22 0.32 -0.19 0.32 -0.2 0.29 -0.05 0.27 -0.11c-0.1,-0.41 -0.47,-0.35 0.31,-0.21 0.02,-0.27 -0.17,-0.14 0.34,-0.18 -0.04,-0.25 -0.08,-0.16 0.21,-0.19l4.94 -3.4c0.82,-0.63 1.63,-1.3 2.42,-1.89 1.41,-1.05 1.11,-1.02 2.16,-1.96 2.01,-1.79 4.46,-4.43 6.11,-6.63 0.55,-0.74 1.15,-1.52 1.76,-2.27 0.04,-0.66 -0.26,-0.41 0.32,-0.28l0.12 -0.19c-0.07,-0.34 -0.17,-0.3 0.12,-0.27 0.08,-0.43 -0.09,-0.25 0.24,-0.26l0.12 -0.26 0.04 -0.28 0.26 -0.26 0.25 -0.25 0.05 -0.32 0.26 -0.26 0.07 -0.26 0.24 -0.29 0.12 -0.24 0.12 -0.13c-0.16,-0.46 -0.25,-0.42 0.18,-0.19l0.09 -0.3 0.08 -0.27 0.18 -0.33 0.21 -0.31 0.2 -0.31 0.2 -0.32 0.21 -0.31 0.18 -0.32 0.17 -0.34 0.09 -0.3 2.19 -5c1.34,-3.32 2.51,-7.62 3.08,-11.21 0.18,-1.2 0.5,-5.58 0.74,-6.27l0 -5.56c-0.62,-1.82 0.1,-12.42 -7.54,-25.44 -0.48,-0.81 -1.45,-2.2 -1.73,-2.87l-0.53 -0.68c-0.26,-0.36 -0.33,-0.48 -0.5,-0.86 -0.61,-0.61 -1.03,-1.27 -1.53,-1.96 -0.51,-0.73 -1.1,-1.31 -1.62,-1.99 -1.01,-1.3 -2.34,-2.67 -3.47,-3.76 -1.05,-1.02 -2.6,-2.51 -3.85,-3.37l-4.09 -3.07c-0.61,-0.25 -0.06,0.03 -0.47,-0.29 -0.12,-0.09 -0.18,-0.19 -0.27,-0.27 -0.57,-0.18 -1.25,-0.67 -1.75,-0.99l-5.28 -2.78c-13.23,-6.36 -30.9,-6.9 -44.42,-1.16 -5.19,2.2 -9.67,4.64 -13.51,7.76 -0.15,0.14 -0.1,0.09 -0.31,0.25l-0.96 0.77c-0.2,0.15 -0.23,0.15 -0.5,0.31 -0.49,0.73 -2.21,1.96 -2.91,2.65 -2.17,2.13 -6.03,6.61 -7.63,9.18 0.17,0.52 -0.49,-0.06 0.32,0.56 0.65,-1.55 4.63,-6.42 6.08,-7.87l7.45 -6.47c12.84,-9.2 27.95,-12.54 43.88,-9.61 5.12,0.94 10.89,3.12 15.37,5.6 1.47,0.82 2.95,1.52 4.34,2.54 3.42,2.51 4.47,3.02 7.77,6.15 0.33,0.31 0.59,0.64 0.91,0.98 2.53,2.64 4.13,4.37 6.33,7.6l2.07 3.1c0.81,1.35 1.65,2.94 2.36,4.48 0.77,1.64 1.48,3.17 2.14,4.95 3.46,9.36 4.39,20.41 2.29,30.35 -1,4.76 -3.86,13.05 -6.53,17.05 -0.02,0.03 -0.05,0.07 -0.07,0.1l-2.3 3.54c-1.37,1.97 -2.1,3 -3.73,4.86 -2.55,2.89 -5.9,5.99 -9.06,8.32 -2.23,1.64 -6.07,3.92 -8.72,5.18 -3.37,1.6 -6.35,2.7 -10.2,3.75 -7.46,2.02 -17.29,2.41 -25.06,0.68 -12.02,-2.69 -19.26,-7.02 -27.46,-14.32 -1.59,-1.42 -5.2,-5.54 -6.48,-7.44l-1.2 -1.71c-1.61,-2.08 -4.06,-6.97 -5.13,-9.49 -6.88,-16.15 -5.52,-35.36 3.55,-50.31 0.2,-0.32 0.42,-0.71 0.67,-1.05 0.56,-0.77 0.49,-0.21 0.31,-0.95l-0.19 -0.33c-0.14,0.45 -0.08,0.33 -0.32,0.77l-0.28 0.45c-0.01,-0.03 -0.05,0.07 -0.08,0.11z"/>
   <path class="fil6" d="M71.82 33.05c-0.84,-0.96 -2.11,-2.42 -3.26,-2.91l-0.21 -0.21 -0.26 -0.09 -0.54 -0.32 -0.33 -0.2 -0.34 -0.16 -0.65 -0.37 -0.35 -0.17 -0.39 -0.15 -0.34 -0.15 -0.35 -0.18c-1.02,-0.08 -0.25,-0.01 -0.91,0.13l-0.69 0.14c0.38,1.05 0.25,-0.59 0.49,0.85l0.01 16.52c-0.03,0.97 -0.19,1.08 -0.13,2.21l7.65 0.08 0.61 -0.04 0.03 -11.54c-0.45,-1.61 0.37,-1.19 -0.05,-2.15 -0.32,-0.74 -0.06,0.28 -0.3,-0.65l0.67 -0.23 0.15 0.19 0.12 0.22 0.12 0.22 0.1 0.23c-0.09,0.35 -0.18,0.3 0.17,0.22 -0.1,0.33 -0.14,0.23 0.23,0.23 -0.04,-0.35 0.07,-0.32 -0.23,-0.23 0.08,-0.31 0.14,-0.25 -0.17,-0.22 0.09,-0.28 0.16,-0.24 -0.1,-0.23l-0.12 -0.22 -0.12 -0.22 -0.15 -0.19 -0.34 -0.35c0.05,0.58 -0.16,0.32 -0.16,0.31l0.14 -0.37z"/>
   <path class="fil1" d="M22.22 56.79c0.1,0.35 0.18,0.32 -0.16,0.18 0.13,0.37 0.17,0.26 -0.24,0.26 -1.27,1.21 -2.97,5.06 -3.67,7.16 -1.84,5.53 -1.95,13.73 -0.08,19.22 0.55,1.63 2.66,6.53 3.76,7.12 0.82,-0.02 0.29,-0.09 0.36,0.31 0.37,0.14 0.15,0 0.31,-0.32 0.06,-0.11 0.25,0.19 0.04,-0.06 -0.24,-0.5 -0.08,-14.87 -0.08,-16.68 0,-2.51 -0.31,-15.41 0.16,-16.58 -0.29,0.08 0.26,-0.17 -0.14,0.08 -0.02,0.01 -0.07,0.04 -0.08,0.05l-0.67 0.22c0.01,-0.04 0.03,-0.11 0.06,-0.15 0.16,-0.28 0.07,-0.12 0.25,-0.31 0.34,-0.39 0,0.31 0.43,-0.51l-0.25 0.01z"/>
   <path class="fil3" d="M49.47 73.54l6.14 0.04c-0.65,-0.24 -14.52,-0.28 -16.21,0.05 -0.49,0.1 -0.93,0.24 -1.26,0.46 -0.39,0.24 -0.6,0.51 -0.7,0.83 -0.64,2.1 2.24,2.68 3.7,2.83 -0.06,0.66 0.41,0.85 0.49,1.9l0.01 7.74c0,1.64 0.35,5.44 -1.16,6.59 -0.68,0.52 -1.09,0.39 -1.74,0.68l-0.01 3.89c2.23,0.15 5.88,-0.36 7.32,-1.25l-0.89 0.19 0.9 -0.69c-0.66,-0.29 -0.16,-0.24 -0.88,-0.42 0.4,-0.35 0.48,-0.2 0.85,-0.39l0 -21.67 -0.81 -0.39c1.75,-0.04 0.79,-0.17 1.91,-0.37 0.66,-0.11 1.69,-0.1 2.34,-0.02z"/>
   <path class="fil2" d="M43.92 35.07c0.08,-0.31 0.15,-0.27 -0.16,-0.18 0.06,-0.3 0.14,-0.26 -0.16,-0.19 0.1,-0.33 0.18,-0.29 -0.14,-0.21 0,-0.59 0.02,-0.16 -0.23,-0.28 0.05,-0.35 0.13,-0.27 -0.22,-0.27 0.03,0.37 -0.09,0.33 0.22,0.27 0.02,0.53 -0.06,0.26 0.23,0.28 -0.09,0.33 -0.17,0.29 0.14,0.21 -0.09,0.32 -0.16,0.28 0.16,0.19 -0.07,0.27 -0.12,0.21 0.16,0.18 0.08,0.63 1.01,1.33 1.52,1.74l0.47 0.4c0.66,0.63 2.01,1.66 2.93,2.06l0.2 0.14c0.77,0.06 0.16,0.06 0.4,-0.17 -0.05,-0.97 -0.2,-0.77 0.47,-0.83 0,-3.24 -0.28,-25.33 0.16,-26.35 -1.1,-0.09 -0.36,-0.35 -1.61,-0.05l-0.81 0.38 -0.23 0.14 -0.21 0.13 -0.14 0.15c-0.65,0.34 -1.75,1.16 -2.18,1.81 -0.02,0.03 -0.05,0.08 -0.07,0.11l-0.12 0.23c-0.33,-0.1 -0.27,-0.16 -0.17,0.17 -0.31,-0.09 -0.24,-0.14 -0.17,0.18 -0.28,-0.07 -0.22,-0.11 -0.15,0.18 -0.31,-0.06 -0.26,-0.12 -0.17,0.18 -0.31,-0.12 -0.2,-0.14 -0.2,0.22 0.35,0.01 0.3,0.1 0.2,-0.22 0.32,0.11 0.24,0.15 0.17,-0.18 0.28,0.05 0.22,0.1 0.15,-0.18 0.33,0.07 0.27,0.13 0.17,-0.18 0.32,0.08 0.27,0.14 0.17,-0.17 0.18,-0.11 0.38,-0.21 0.47,-0.27 -0.43,0.58 -0.33,0.32 -0.3,1.13 -0.72,-0.19 -0.28,-0.3 -0.68,0.2 0.39,1.1 0.35,-1.62 0.33,1.72l0.04 16.14c0.23,1.07 1.08,1.27 0.35,1.52 -0.16,-0.46 0.4,-0.72 -0.74,-0.85 0.17,0.76 1.08,1.98 1.88,2.46 -0.48,-0.18 -1.54,-1.65 -2.13,-1.94z"/>
   <path class="fil6" d="M94.57 60.91c-0.18,-0.56 -0.06,-0.26 0.1,-0.47 0.06,-1.48 0.52,-1.74 0.39,-2.6l-0.09 -2.8c0.77,-1.57 0.19,0.49 0.37,-0.49 0,-1.04 0,-2.07 0.01,-3.1 0.01,-3.55 -0.14,-1.33 -0.49,-2.41 0.34,-0.21 0.59,-0.14 1.13,-0.16l0.34 -0.63c1.57,-0.06 2.77,-0.19 4.32,-0.06 -0.94,-0.48 -5.29,-0.17 -6.72,-0.16 -2,0 -4.76,-0.3 -5.81,0.88 -0.64,0.71 -0.41,1.93 0.21,2.46 1.03,0.88 5.11,0.67 3.52,5.74 -1.08,3.49 -1.82,7.23 -2.88,10.71 -0.72,2.38 -1.27,3.58 -0.76,5.32 0.31,1.05 1.1,4.54 1.61,5.13l4.75 -17.36z"/>
   <path class="fil6" d="M46.05 97.3c0.66,-0.09 2.88,-0.91 3.4,-1.49 0.13,-0.45 -0.29,-0.28 0.48,-0.26 0.33,-0.7 0.4,-0.4 1.05,-0.89l0.97 -0.73c-0.16,-0.09 -0.03,-0.03 -0.27,-0.08 -0.78,-0.15 -0.57,-0.13 -0.92,0.08 0.23,-0.88 0.01,-17.4 0.04,-20 -0.67,-0.02 -1.29,0.19 -1.33,-0.39 -0.65,-0.08 -1.68,-0.09 -2.34,0.02 -1.12,0.2 -0.16,0.33 -1.91,0.37l0.81 0.39 0 21.67c-0.37,0.19 -0.45,0.04 -0.85,0.39 0.72,0.18 0.22,0.13 0.88,0.42l-0.9 0.69 0.89 -0.19z"/>
   <path class="fil3" d="M59.36 44.4c0.42,0.22 0.54,0.34 0.99,0.54l0.32 0.22 0.17 0.15 0.21 0.15c0.56,0.47 0.69,0.68 1.2,1.12 0.26,0.23 0.1,0.08 0.3,0.3 0,0 0.22,0.27 0.24,0.29 0.2,0.29 0.27,0.32 0.3,0.84l0.48 -0.02c-0.06,-1.13 0.1,-1.24 0.13,-2.21l-0.01 -16.52c-0.24,-1.44 -0.11,0.2 -0.49,-0.85l0.69 -0.14c0.66,-0.14 -0.11,-0.21 0.91,-0.13l0.35 0.18 0.34 0.15 0.39 0.15 0.35 0.17 0.65 0.37 0.34 0.16 0.33 0.2 0.54 0.32 0.26 0.09 0.21 0.21 -0.21 -0.21 -0.26 -0.09 -0.54 -0.32 -0.33 -0.2 -0.34 -0.16 -0.65 -0.37 -0.35 -0.17c-0.13,-0.26 0.18,-0.24 -0.39,-0.15 -0.08,-0.23 0.2,-0.19 -0.34,-0.15 -0.09,-0.29 0.18,-0.22 -0.35,-0.18 -0.19,-0.22 0.03,-0.04 -0.28,-0.23l-5.52 -2.36c0.08,0.84 -0.31,0.4 -0.72,0.62 0.13,0.37 0.08,0.18 -0.01,0.74 0.34,0.17 0.5,0.18 0.82,0.38 -0.93,0.03 -0.43,0.09 -0.65,0.26l-0.26 13.7c-0.01,-0.03 -0.05,0.07 -0.08,0.11 0.66,0.17 0.89,0.04 0.77,0.76 -0.13,0.82 -0.24,0.25 0.01,1.31 0.23,0.99 -0.31,0.4 0.48,0.97z"/>
   <path class="fil7" d="M49.93 95.55c-0.77,-0.02 -0.35,-0.19 -0.48,0.26l0.48 -0.26c1.43,-0.46 3.81,-2.35 4.71,-3.23 0.77,-0.75 0.43,-5.97 0.43,-7.34 0,-2.03 -0.57,-6.06 0.74,-7.15 0.71,-0.59 1.57,-0.94 1.66,-2.32 0.08,-1.38 -0.71,-1.71 -1.86,-1.93l-6.14 -0.04c0.04,0.58 0.66,0.37 1.33,0.39 -0.03,2.6 0.19,19.12 -0.04,20 0.35,-0.21 0.14,-0.23 0.92,-0.08 0.24,0.05 0.11,-0.01 0.27,0.08l-0.97 0.73c-0.65,0.49 -0.72,0.19 -1.05,0.89z"/>
   <path class="fil7" d="M49.82 60.8c0.4,1.14 0.97,2.06 1.41,3.42 0.35,1.07 0.68,2.82 1.59,3.22 3.63,1.63 2.95,-3.96 2.94,-6.36 0,-3.2 0.05,-6.44 0,-9.64 -0.02,-1.53 -0.48,-3.08 -2.38,-2.39 -0.58,0.22 -1.81,1.97 -2.28,2.43 0,0.42 0.1,0.34 -0.3,0.22 -1,0.5 0.23,0.02 -0.82,0.19 0.93,0.06 0.84,0.03 1.53,-0.15l-0.22 0.2c-0.04,0.03 -0.18,0.14 -0.21,0.17 -0.16,0.12 -0.11,0.06 -0.29,0.2l0.02 6.71c-0.04,0.01 -0.09,0.02 -0.1,0.03l-0.31 0.09c-0.03,0.01 -0.24,0.04 -0.46,0.11 0.18,0.49 0.73,1.62 0.79,1.32 0.01,-0.02 0.05,-0.01 0.07,-0.01l-0.46 0.78c-0.32,-0.66 0.08,-0.24 -0.52,-0.54z"/>
   <path class="fil7" d="M70.11 11.73c0.1,0.41 0.21,0.38 -0.17,0.26 0.1,0.33 0.16,0.27 -0.16,0.18 0.11,0.38 0.13,0.26 -0.26,0.13 -0.49,0.27 -0.89,0.2 -1.57,0.25 0,1.28 0,2.55 -0.01,3.83 0,1.28 0.24,0.88 0.28,1.55 0.03,0.66 -0.34,0.79 -0.57,1.53l-0.02 0.17 0.15 0.22c0.38,0.83 0.99,1.77 1.38,2.85 0.33,0.9 0.68,2.84 1.13,3.38 0.78,0.96 2.13,1.01 2.97,0.06 0.88,-0.99 0.68,-2.19 0.68,-3.75 0,-2.93 0.01,-5.85 0.01,-8.78 0,-5.52 -3.44,-3.18 -3.84,-1.88z"/>
   <path class="fil1" d="M44.7 14.96c0.1,0.31 0.15,0.25 -0.17,0.17 0.1,0.31 0.16,0.25 -0.17,0.18 0.07,0.28 0.13,0.23 -0.15,0.18 0.07,0.33 0.15,0.29 -0.17,0.18 0.1,0.32 0.15,0.23 -0.2,0.22 -1.39,1.21 -3.08,5.78 -3.21,8.55 -0.11,2.08 0.03,3.67 0.49,5.51 0.31,1.22 1.22,3.42 1.89,3.99 0.35,0 0.27,-0.08 0.22,0.27 0.25,0.12 0.23,-0.31 0.23,0.28 0.32,-0.08 0.24,-0.12 0.14,0.21 0.3,-0.07 0.22,-0.11 0.16,0.19 0.31,-0.09 0.24,-0.13 0.16,0.18 0.59,0.29 1.65,1.76 2.13,1.94 -0.8,-0.48 -1.71,-1.7 -1.88,-2.46 1.14,0.13 0.58,0.39 0.74,0.85 0.73,-0.25 -0.12,-0.45 -0.35,-1.52l-0.04 -16.14c0.02,-3.34 0.06,-0.62 -0.33,-1.72 0.4,-0.5 -0.04,-0.39 0.68,-0.2 -0.03,-0.81 -0.13,-0.55 0.3,-1.13 -0.09,0.06 -0.29,0.16 -0.47,0.27z"/>
   <path class="fil7" d="M71.84 33.11l-0.02 -0.06 -0.14 0.37c0,0.01 0.21,0.27 0.16,-0.31zm-0.01 14.92l3.03 -0.05c0.14,-1.03 0.56,-1.98 0.71,-3.36 0.14,-1.29 0.12,-2.75 -0.07,-3.98 -0.29,-1.82 -1.4,-4.95 -2.43,-5.87 -0.37,0 -0.33,0.1 -0.23,-0.23 -0.35,0.08 -0.26,0.13 -0.17,-0.22l-0.1 -0.23 -0.12 -0.22 -0.12 -0.22 -0.15 -0.19 -0.67 0.23c0.24,0.93 -0.02,-0.09 0.3,0.65 0.42,0.96 -0.4,0.54 0.05,2.15l-0.03 11.54z"/>
   <path class="fil6" d="M50.8 51.7c0.4,0.12 0.3,0.2 0.3,-0.22 -0.38,0.02 -0.33,-0.1 -0.3,0.22 -1.51,-0.26 -1.5,-0.37 -2.71,-0.87 -0.81,-0.21 -1.28,-0.48 -2.07,-0.48 -0.47,-0.03 -1.08,-0.18 -1.66,-0.29l0.51 0.21c0.37,0.19 0.19,0.15 0.19,0.15l0.53 0.14c-0.64,0.32 -0.24,-0.11 -0.25,0.57 -0.01,0.24 0.04,0.72 0.04,1 0.03,1.35 0.12,1.32 -0.19,1.69l0.24 0.18c0.04,0.02 0.09,0.06 0.12,0.08 1.18,0.92 0.27,0.31 0.48,0.92 0.12,0.34 0.74,0.85 1,1.22 0.34,-0.13 0.21,-0.12 0.11,0.24 0.29,-0.05 0.21,-0.09 0.13,0.21l0.14 0.25c1.06,1.31 1.44,2.48 2.41,3.88 0.6,0.3 0.2,-0.12 0.52,0.54l0.46 -0.78c-0.02,0 -0.06,-0.01 -0.07,0.01 -0.06,0.3 -0.61,-0.83 -0.79,-1.32 0.22,-0.07 0.43,-0.1 0.46,-0.11l0.31 -0.09c0.01,-0.01 0.06,-0.02 0.1,-0.03l-0.02 -6.71c0.18,-0.14 0.13,-0.08 0.29,-0.2 0.03,-0.03 0.17,-0.14 0.21,-0.17l0.22 -0.2c-0.69,0.18 -0.6,0.21 -1.53,0.15 1.05,-0.17 -0.18,0.31 0.82,-0.19z"/>
   <path class="fil7" d="M94.67 60.44c-0.16,0.21 -0.28,-0.09 -0.1,0.47l0.1 -0.47c0.81,-1.85 1.02,-5.03 3.32,-7.16 0.91,-0.84 2.42,-1.27 3.28,-1.88 1.28,-0.92 0.9,-3.02 -0.62,-3.21 -1.55,-0.13 -2.75,0 -4.32,0.06l-0.34 0.63c-0.54,0.02 -0.79,-0.05 -1.13,0.16 0.35,1.08 0.5,-1.14 0.49,2.41 -0.01,1.03 -0.01,2.06 -0.01,3.1 -0.18,0.98 0.4,-1.08 -0.37,0.49l0.09 2.8c0.13,0.86 -0.33,1.12 -0.39,2.6z"/>
   <path class="fil1" d="M44.22 42.28c-0.32,-2.37 -2.94,-1.4 -3.5,0.16 -0.35,1 -0.1,5.3 -0.16,6.74l3.75 0.46 0.87 -0.14c-0.06,-0.02 -0.26,-0.06 -0.3,-0.08 -0.28,-0.11 -0.19,-0.08 -0.36,-0.21 0,-0.4 -0.05,-1.17 0.03,-1.53 0.13,-0.57 0.31,-0.52 0.63,-0.93l-0.66 -0.29c-0.01,-0.42 0.04,-0.9 -0.06,-1.29 -0.01,-0.04 -0.04,-0.08 -0.05,-0.12l-0.14 -0.37c-0.09,-0.35 -0.08,-0.23 -0.07,-0.62l-0.15 0.02c-0.11,0 0.04,0.08 -0.2,-0.02 0.21,-0.41 0.13,-0.08 0.17,-0.72 0.86,0.66 0.16,0.66 0.43,0.37 -0.2,-0.67 -0.29,-0.59 -0.23,-1.43z"/>
   <path class="fil3" d="M64.66 58.29l0 -0.42 -1.9 -5.22c-0.39,0.91 -1.52,1.47 -2.4,1.89 -1.12,0.53 -1.34,0.47 -2.37,0.86l-0.02 3.92c3.03,0.28 5.77,-0.96 6.69,-1.03z"/>
   <path class="fil1" d="M62.32 48.27c-1.23,-0.06 -2.3,0.82 -2.08,2.28 0.13,0.84 0.38,0.84 1.05,1.21 0.51,0.28 1.12,0.53 1.47,0.89l1.9 5.22c0.28,0.28 0.36,-0.49 0.23,0.62 0.02,0.03 0.06,0.04 0.07,0.1l0.48 0.51 -0.15 -0.84c-0.1,-0.33 -0.01,-0.06 -0.06,-0.43l-0.13 -8.73c-0.08,-0.26 0.08,-0.02 -0.21,-0.28 -0.02,-0.02 -0.07,-0.05 -0.09,-0.07 -0.03,-0.02 -0.08,-0.06 -0.1,-0.08l1.14 -0.22c-1.26,-0.07 -2.18,-0.19 -3.52,-0.18z"/>
   <path class="fil3" d="M46.02 50.35c-0.51,-0.5 -1.06,-0.16 -1.71,-0.71l-3.75 -0.46c-1.7,-0.02 -1.32,-0.43 -1.32,1.75 0.01,2.24 -0.36,1.63 1.34,2.06 1.26,-0.02 2.84,0.55 3.75,1.13 1.97,1.24 1.53,1.26 2.26,1.84 0.4,0.31 0.09,0.12 0.44,0.26 -0.11,0.34 -0.21,0.3 0.11,0.24 -0.11,0.3 -0.17,0.25 0.13,0.21l0 0.25 0.14 0 -0.14 -0.25c0.08,-0.3 0.16,-0.26 -0.13,-0.21 0.1,-0.36 0.23,-0.37 -0.11,-0.24 -0.26,-0.37 -0.88,-0.88 -1,-1.22 -0.21,-0.61 0.7,0 -0.48,-0.92 -0.03,-0.02 -0.08,-0.06 -0.12,-0.08l-0.24 -0.18c0.31,-0.37 0.22,-0.34 0.19,-1.69 0,-0.28 -0.05,-0.76 -0.04,-1 0.01,-0.68 -0.39,-0.25 0.25,-0.57l-0.53 -0.14c0,0 0.18,0.04 -0.19,-0.15l-0.51 -0.21c0.58,0.11 1.19,0.26 1.66,0.29z"/>
   <path class="fil1" d="M47.27 56.92l0 -0.25c-0.3,0.04 -0.24,0.09 -0.13,-0.21 -0.32,0.06 -0.22,0.1 -0.11,-0.24 -0.35,-0.14 -0.04,0.05 -0.44,-0.26 -0.73,-0.58 -0.29,-0.6 -2.26,-1.84 -0.91,-0.58 -2.49,-1.15 -3.75,-1.13 0,2.24 -0.46,5.61 1.63,5.98 1.1,0.19 1.81,-0.83 2.32,-1.37 1.25,-1.31 1.59,-0.59 2.74,-0.68z"/>
   <path class="fil3" d="M64.91 16.34l0.13 0.17c0,0.27 -0.06,0.21 0.21,0.15 -0.05,0.29 -0.11,0.23 0.18,0.18 -0.06,0.27 -0.11,0.21 0.18,0.17 -0.05,0.26 -0.11,0.19 0.15,0.19l0.16 0.15c0.24,0.54 -0.02,0.15 0.45,0.62l0.15 0.19 0.14 0.19 0.25 0.28 0.11 0.23 0.26 0.29 0.35 0.48c-0.06,0.28 -0.13,0.22 0.15,0.22l-0.15 -0.22 0.02 -0.17c-0.48,-0.23 -0.26,0.31 -0.37,-0.31l-0.26 -0.29 -0.11 -0.23 -0.25 -0.28 -0.14 -0.19 -0.15 -0.19 -0.45 -0.62 -0.16 -0.15 -0.15 -0.19c0.05,-0.29 0.1,-0.23 -0.18,-0.17 0.05,-0.3 0.11,-0.25 -0.18,-0.18l-0.21 -0.15 -0.13 -0.17 -0.94 -1.14c0.37,-0.23 0.12,-0.06 0.8,-0.19 0.01,0 0.07,0 0.1,-0.02 -0.43,-0.17 -0.29,0.09 -0.36,-1.2 -0.04,-0.91 -0.22,-0.18 -0.5,-0.85 0.51,-0.27 0.59,-0.19 1.33,-0.22 -0.03,-0.09 -0.12,-0.31 -0.13,-0.32l-0.14 -0.72c0,0 0.01,-0.04 0.01,-0.05 0,-0.01 0.01,-0.04 0.01,-0.05 0.04,-0.58 0.3,0.78 -0.11,-0.26 -0.18,-0.46 -0.58,0.17 0,-0.32 -0.04,-0.02 -0.11,-0.1 -0.14,-0.06 -0.02,0.04 -0.1,-0.05 -0.13,-0.07 -0.04,-0.01 -0.21,-0.09 -0.26,-0.1 -1.09,-0.41 -3.78,-0.92 -4.69,-0.89 -0.15,0.8 -0.1,2.05 -0.09,2.89 0.01,1.87 0.3,0.45 3.48,2.39 0.67,0.41 1.11,0.92 1.76,1.18z"/>
   <path class="fil6" d="M64.91 16.34l0.13 0.17 0.21 0.15c0.29,-0.07 0.23,-0.12 0.18,0.18 0.28,-0.06 0.23,-0.12 0.18,0.17l0.15 0.19 0.16 0.15 0.45 0.62 0.15 0.19 0.14 0.19 0.25 0.28 0.11 0.23 0.26 0.29c0.11,0.62 -0.11,0.08 0.37,0.31 0.23,-0.74 0.6,-0.87 0.57,-1.53 -0.04,-0.67 -0.28,-0.27 -0.28,-1.55 0.01,-1.28 0.01,-2.55 0.01,-3.83 0.68,-0.05 1.08,0.02 1.57,-0.25 0.39,0.13 0.37,0.25 0.26,-0.13 0.32,0.09 0.26,0.15 0.16,-0.18 0.38,0.12 0.27,0.15 0.17,-0.26 -0.35,0 -0.28,-0.08 -0.17,0.26 -0.32,-0.1 -0.25,-0.14 -0.16,0.18 -0.32,-0.09 -0.26,-0.17 -0.26,0.13 -1.28,-0.2 -1.32,-0.06 -2.46,-0.53 -0.68,-0.28 -1.44,-0.62 -2.08,-0.77 -0.58,0.49 -0.18,-0.14 0,0.32 0.41,1.04 0.15,-0.32 0.11,0.26 0,0.01 -0.01,0.04 -0.01,0.05 0,0.01 -0.01,0.05 -0.01,0.05l0.14 0.72c0.01,0.01 0.1,0.23 0.13,0.32 -0.74,0.03 -0.82,-0.05 -1.33,0.22 0.28,0.67 0.46,-0.06 0.5,0.85 0.07,1.29 -0.07,1.03 0.36,1.2 -0.03,0.02 -0.09,0.02 -0.1,0.02 -0.68,0.13 -0.43,-0.04 -0.8,0.19l0.94 1.14z"/>
   <path class="fil5" d="M32.95 49.49c1.17,0.03 1.65,-0.79 3.16,-0.25 0.21,0.54 0.16,1.13 0.15,1.69 0,0.63 -0.02,1.24 -0.01,1.86 -3.3,0.34 -3.12,4.54 -3.12,8.12 0,3.49 -0.15,28.46 0.08,30.44 0.09,0.8 0.17,1.64 0.65,2.11 0.16,0.53 0.92,1.13 1.59,1.26 0.14,0.87 0.24,2.99 0,3.67l-1.12 0.08c0.46,0.35 0.18,0 1.18,0.24l0.19 0.09c0.35,-1.08 0.3,-2.8 0.16,-4.1 -0.3,-0.22 -1.66,-1.18 -2,-1.24 0.01,-1.04 -0.32,-1.32 -0.36,-2.45 -0.19,-4.97 -0.01,-14.14 -0.01,-19.27 0,-2.52 -0.26,-14.32 0.29,-16.26 0.58,-2.06 2.17,-2.25 2.79,-2.72 0.07,-1.17 -0.12,-2.66 0.14,-3.61 -0.75,-0.59 -0.83,-0.27 -1.95,-0.2 -0.66,0.04 -1.74,-0.07 -1.81,0.54z"/>
   <path class="fil2" d="M44.31 49.64c0.65,0.55 1.2,0.21 1.71,0.71 0.79,0 1.26,0.27 2.07,0.48 0.09,-0.35 0.04,-0.41 -0.37,-0.98 -0.27,-0.38 -0.39,-0.54 -0.6,-0.93 -0.96,-1.74 -1.84,-3.24 -2.42,-5.35 -0.12,-0.47 -0.16,-0.9 -0.48,-1.29 -0.06,0.84 0.03,0.76 0.23,1.43 -0.27,0.29 0.43,0.29 -0.43,-0.37 -0.04,0.64 0.04,0.31 -0.17,0.72 0.24,0.1 0.09,0.02 0.2,0.02l0.15 -0.02c-0.01,0.39 -0.02,0.27 0.07,0.62l0.14 0.37c0.01,0.04 0.04,0.08 0.05,0.12 0.1,0.39 0.05,0.87 0.06,1.29l0.66 0.29c-0.32,0.41 -0.5,0.36 -0.63,0.93 -0.08,0.36 -0.03,1.13 -0.03,1.53 0.17,0.13 0.08,0.1 0.36,0.21 0.04,0.02 0.24,0.06 0.3,0.08l-0.87 0.14z"/>
   <path class="fil5" d="M53.61 10.25c-0.62,-0.09 -0.03,-0.13 -0.4,-0.02 -0.44,0.13 -0.2,-0.17 -0.3,0.18 -0.52,-0.1 -0.06,-0.13 -0.4,-0.03 -0.48,0.14 -0.16,-0.23 -0.32,0.2 -0.75,-0.16 -0.64,-0.08 -0.9,0.34 0.15,-0.02 0.17,0.04 0.46,-0.07 0.8,-0.28 0.17,0.01 0.44,-0.27 0.52,0.08 -0.49,0.26 0.32,0.03 0.3,-0.08 0.37,-0.18 0.4,-0.2 0.43,0.1 -0.59,0.31 0.3,0.05 0.31,-0.1 0.33,-0.16 0.4,-0.21 0.95,0.24 1.24,-0.25 3.17,-0.25l0 3.44 -2.14 1.12c-0.68,0.35 -1.48,0.99 -1.63,1.82l-0.42 0.78c-0.32,0.9 -0.3,2.56 -0.05,3.23 0.19,0.49 0.19,0.33 0.28,0.43 0.04,0.27 -0.04,0.24 0.12,0.55 0.38,0.71 0.17,0.26 0.48,0.44 -0.05,-0.24 -0.03,-0.32 -0.15,-0.56 -0.38,-0.73 -0.15,-0.27 -0.45,-0.43 0.07,-0.72 -0.16,-1.41 -0.16,-2.22 0.01,-1.1 0.32,-1.32 0.35,-2.22 0.62,-0.24 0.82,-1.08 2,-1.66l0.88 -0.46c0.42,-0.19 0.96,-0.23 1.27,-0.42l0.04 -4.07c-0.47,-0.24 -3.13,-0.04 -3.59,0.48z"/>
   <path class="fil8" d="M23.72 54.91c0.42,-0.19 0.67,-0.42 0.93,-0.81 -0.61,-0.11 -0.78,0.28 -0.93,0.81z"/>
  </g>
 </g>
</svg>
