<?xml version="1.0" encoding="UTF-8"?>
<!DOCTYPE svg PUBLIC "-//W3C//DTD SVG 1.1//EN" "http://www.w3.org/Graphics/SVG/1.1/DTD/svg11.dtd">
<!-- Creator: CorelDRAW 2021 (64 Bit) -->
<svg xmlns="http://www.w3.org/2000/svg" xml:space="preserve" width="257px" height="230px" version="1.1" style="shape-rendering:geometricPrecision; text-rendering:geometricPrecision; image-rendering:optimizeQuality; fill-rule:evenodd; clip-rule:evenodd"
viewBox="0 0 1897.77 1698.18"
 xmlns:xlink="http://www.w3.org/1999/xlink"
 xmlns:xodm="http://www.corel.com/coreldraw/odm/2003">
 <defs>
  <style type="text/css">
   <![CDATA[
    .str1 {stroke:red;stroke-width:59.06;stroke-miterlimit:22.9256}
    .str0 {stroke:#D1CDCD;stroke-width:110.74;stroke-miterlimit:22.9256}
    .fil1 {fill:none}
    .fil0 {fill:#FEFEFE}
   ]]>
  </style>
 </defs>
 <g id="Camada_x0020_1">
  <metadata id="CorelCorpID_0Corel-Layer"/>
  <g id="_2529898367936">
   <rect class="fil0 str0" x="55.36" y="55.36" width="1787.03" height="1587.44" rx="221.48" ry="221.48"/>
   <g>
    <line class="fil1 str1" x1="507.49" y1="1507.96" x2="507.49" y2= "1355.15" />
    <path class="fil1 str1" d="M339.09 1509.79l0 -236.09c18.1,-69.33 48.04,-123.07 155.79,-155.79l0 0 269.29 -47.35c13.74,1.33 27.43,-5.49 34.78,-12.85 6.1,-6 5.78,-18.9 5.49,-27.4l0 -93.35"/>
    <path class="fil1 str1" d="M951.76 1252.67c-91.8,-1.82 -200.11,-70.7 -187.59,-180.51l-7.42 -0.3"/>
    <path class="fil1 str1" d="M1278.45 884.8c-40.76,30.32 -63.23,72.54 -75.61,123.9 -8.87,48.95 -7.76,108.78 17.26,135.78l-5.71 5.7 -316.61 316.63c34.47,32.94 70.76,46.66 122.62,32.94l41.18 -41.17 85.09 -26.56 36.61 -99.73 100.67 -8.24 56.05 -66.66c177.6,65.52 294.27,-71.57 300.63,-197.32 5.6,-111.87 -87.2,-229.15 -215.71,-221.59"/>
    <line class="fil1 str1" x1="1551.69" y1="1358.85" x2="1551.69" y2= "1507.06" />
    <ellipse class="fil0 str1" cx="1460.17" cy="957.15" rx="64.6" ry="63.28"/>
    <path class="fil1 str1" d="M653.76 621.44c-2.32,-12 -45.21,-1.79 -49.47,21.88 -2.61,14.32 -5.34,36.42 9.92,71.94 2.15,48.88 39.94,75.93 73.61,70.72l0 0c96.47,264.45 444.42,226.94 523.43,0l0 0c17.73,2.35 40.76,-0.27 54.31,-18.49 8.96,-12.03 16.25,-32.66 16.18,-58.38 19.31,-37.27 14.78,-48.87 5.78,-68.09 -5.96,-12.66 -29.51,-24.39 -46.32,-22.24l-7.97 2.5"/>
    <path class="fil1 str1" d="M1247.87 562.7c12.82,-34.77 -49.04,-105.78 -107.98,-107.98l0 0c-135.89,115.3 -239.31,124.46 -388,0l0 0c-30.88,-0.24 -92.82,20.84 -95.62,55.36l-9.63 49.88"/>
    <path class="fil1 str1" d="M655.39 636.46c-24.64,-115.58 -30.77,-210.75 41.61,-304.38l0 0"/>
    <path class="fil1 str1" d="M839.74 222.27c56.08,-20.51 179.98,-38.18 282.26,39.3 106.42,80.61 153.92,196.13 117.46,365.67l-1.63 6.9"/>
    <path class="fil1 str1" d="M844.5 800.67c51.16,65.88 150.02,64.5 208.5,-3.21l-16.18 16.79"/>
    <ellipse class="fil0 str1" cx="769.31" cy="274.26" rx="18.44" ry="18.05"/>
    <ellipse class="fil0 str1" cx="1342.51" cy="852.36" rx="18.44" ry="18.05"/>
    <ellipse class="fil0 str1" cx="788.98" cy="633.29" rx="18.44" ry="18.05"/>
    <ellipse class="fil0 str1" cx="1083.95" cy="634.07" rx="18.44" ry="18.05"/>
   </g>
  </g>
 </g>
</svg>
