<?xml version="1.0" encoding="UTF-8"?>
<!DOCTYPE svg PUBLIC "-//W3C//DTD SVG 1.1//EN" "http://www.w3.org/Graphics/SVG/1.1/DTD/svg11.dtd">
<!-- Creator: CorelDRAW 2021 (64 Bit) -->
<svg xmlns="http://www.w3.org/2000/svg" xml:space="preserve" width="257px" height="230px" version="1.1" style="shape-rendering:geometricPrecision; text-rendering:geometricPrecision; image-rendering:optimizeQuality; fill-rule:evenodd; clip-rule:evenodd"
viewBox="0 0 669.97 599.51"
 xmlns:xlink="http://www.w3.org/1999/xlink"
 xmlns:xodm="http://www.corel.com/coreldraw/odm/2003">
 <defs>
  <style type="text/css">
   <![CDATA[
    .str1 {stroke:black;stroke-width:20.85;stroke-miterlimit:22.9256}
    .str0 {stroke:#D1CDCD;stroke-width:39.09;stroke-miterlimit:22.9256}
    .fil1 {fill:none}
    .fil0 {fill:#FEFEFE}
   ]]>
  </style>
 </defs>
 <g id="Camada_x0020_1">
  <metadata id="CorelCorpID_0Corel-Layer"/>
  <g id="_2529884785168">
   <rect class="fil0 str0" x="19.55" y="19.55" width="630.88" height="560.42" rx="78.19" ry="78.19"/>
   <g>
    <line class="fil1 str1" x1="179.21" y1="541.46" x2="179.21" y2= "487.51" />
    <path class="fil1 str1" d="M119.76 542.1l0 -83.35c6.39,-24.47 16.96,-43.44 55,-55l0 0 95.07 -16.71c4.85,0.47 9.68,-1.94 12.27,-4.54 2.16,-2.12 2.04,-6.67 1.94,-9.67l0 -32.96"/>
    <path class="fil1 str1" d="M336.05 451.33c-32.41,-0.64 -70.64,-24.96 -66.22,-63.72l-2.62 -0.11"/>
    <path class="fil1 str1" d="M451.38 321.46c-14.39,10.7 -22.32,25.61 -26.69,43.74 -3.13,17.28 -2.74,38.4 6.09,47.93l-2.01 2.02 -111.77 111.78c12.16,11.63 24.98,16.47 43.28,11.63l14.54 -14.54 30.04 -9.37 12.93 -35.21 35.54 -2.91 19.78 -23.54c62.7,23.14 103.89,-25.26 106.13,-69.65 1.98,-39.5 -30.78,-80.9 -76.15,-78.23"/>
    <line class="fil1 str1" x1="547.85" y1="488.81" x2="547.85" y2= "541.14" />
    <ellipse class="fil0 str1" cx="515.54" cy="347" rx="22.81" ry="22.34"/>
    <path class="fil1 str1" d="M230.85 228.49c-0.82,-4.24 -15.96,-0.64 -17.47,7.72 -0.92,5.05 -1.88,12.86 3.5,25.4 0.76,17.25 14.11,26.8 25.99,24.96l0 0c34.06,93.36 156.9,80.12 184.79,0l0 0c6.26,0.83 14.39,-0.09 19.17,-6.52 3.17,-4.25 5.74,-11.53 5.72,-20.62 6.81,-13.15 5.21,-17.25 2.04,-24.03 -2.11,-4.47 -10.42,-8.61 -16.36,-7.85l-2.81 0.88"/>
    <path class="fil1 str1" d="M440.59 207.75c4.52,-12.28 -17.31,-37.35 -38.12,-38.12l0 0c-47.97,40.7 -84.49,43.94 -136.98,0l0 0c-10.9,-0.09 -32.77,7.36 -33.76,19.54l-3.4 17.61"/>
    <path class="fil1 str1" d="M231.42 233.79c-8.7,-40.81 -10.86,-74.4 14.69,-107.46l0 0"/>
    <path class="fil1 str1" d="M296.5 87.56c19.8,-7.24 63.54,-13.47 99.65,13.88 37.57,28.46 54.34,69.24 41.47,129.09l-0.58 2.44"/>
    <path class="fil1 str1" d="M298.18 291.76c18.07,23.26 52.97,22.77 73.61,-1.14l-5.71 5.93"/>
    <ellipse class="fil0 str1" cx="271.64" cy="105.92" rx="6.51" ry="6.37"/>
    <ellipse class="fil0 str1" cx="474" cy="310.01" rx="6.51" ry="6.37"/>
    <ellipse class="fil0 str1" cx="278.59" cy="232.67" rx="6.51" ry="6.37"/>
    <ellipse class="fil0 str1" cx="382.72" cy="232.94" rx="6.51" ry="6.37"/>
   </g>
  </g>
 </g>
</svg>
