<?xml version="1.0" encoding="UTF-8"?>
<!DOCTYPE svg PUBLIC "-//W3C//DTD SVG 1.1//EN" "http://www.w3.org/Graphics/SVG/1.1/DTD/svg11.dtd">
<!-- Creator: CorelDRAW 2021 (64 Bit) -->
<svg xmlns="http://www.w3.org/2000/svg" xml:space="preserve" width="257px" height="230px" version="1.1" style="shape-rendering:geometricPrecision; text-rendering:geometricPrecision; image-rendering:optimizeQuality; fill-rule:evenodd; clip-rule:evenodd"
viewBox="0 0 49.75 44.51"
 xmlns:xlink="http://www.w3.org/1999/xlink"
 xmlns:xodm="http://www.corel.com/coreldraw/odm/2003">
 <defs>
  <style type="text/css">
   <![CDATA[
    .str1 {stroke:black;stroke-width:1.55;stroke-miterlimit:22.9256}
    .str0 {stroke:#C7C7C7;stroke-width:2.9;stroke-miterlimit:22.9256}
    .fil0 {fill:none}
    .fil1 {fill:black}
   ]]>
  </style>
 </defs>
 <g id="Camada_x0020_1">
  <metadata id="CorelCorpID_0Corel-Layer"/>
  <g id="_2529884750992">
   <rect class="fil0 str0" x="1.45" y="1.45" width="46.84" height="41.61" rx="5.81" ry="5.81"/>
   <g>
    <line class="fil0 str1" x1="14.14" y1="38.79" x2="14.14" y2= "34.8" />
    <path class="fil0 str1" d="M9.74 38.84l0 -6.17c0.47,-1.81 1.26,-3.21 4.07,-4.07l0 0 7.03 -1.23c0.36,0.03 0.72,-0.15 0.91,-0.34 0.16,-0.15 0.15,-0.49 0.14,-0.71l0 -2.44"/>
    <path class="fil0 str1" d="M25.74 32.12c-2.4,-0.04 -5.23,-1.84 -4.9,-4.71l-0.19 -0.01"/>
    <path class="fil0 str1" d="M34.27 22.52c-1.07,0.79 -1.65,1.89 -1.98,3.23 -0.23,1.28 -0.2,2.84 0.45,3.55l-0.15 0.15 -8.26 8.26c0.9,0.86 1.85,1.22 3.2,0.86l1.08 -1.07 2.22 -0.7 0.95 -2.6 2.63 -0.21 1.46 -1.74c4.64,1.71 7.69,-1.87 7.85,-5.16 0.15,-2.92 -2.27,-5.98 -5.63,-5.78"/>
    <line class="fil0 str1" x1="41.4" y1="34.89" x2="41.4" y2= "38.76" />
    <ellipse class="fil0 str1" cx="39.01" cy="24.41" rx="1.69" ry="1.65"/>
    <path class="fil0 str1" d="M17.96 15.64c-0.06,-0.31 -1.18,-0.04 -1.29,0.57 -0.07,0.38 -0.14,0.95 0.26,1.88 0.05,1.28 1.04,1.98 1.92,1.85l0 0c2.52,6.9 11.6,5.92 13.66,0l0 0c0.47,0.06 1.07,-0.01 1.42,-0.48 0.23,-0.32 0.42,-0.86 0.42,-1.53 0.51,-0.97 0.39,-1.28 0.15,-1.78 -0.15,-0.33 -0.77,-0.63 -1.21,-0.58l-0.2 0.07"/>
    <path class="fil0 str1" d="M33.47 14.11c0.33,-0.91 -1.28,-2.76 -2.82,-2.82l0 0c-3.55,3.01 -6.25,3.25 -10.13,0l0 0c-0.81,-0.01 -2.42,0.54 -2.5,1.44l-0.25 1.31"/>
    <path class="fil0 str1" d="M18 16.03c-0.64,-3.01 -0.8,-5.5 1.09,-7.94l0 0"/>
    <path class="fil0 str1" d="M22.81 5.22c1.47,-0.53 4.7,-1 7.37,1.03 2.78,2.1 4.02,5.12 3.07,9.54l-0.04 0.18"/>
    <path class="fil0 str1" d="M22.94 20.32c1.33,1.72 3.91,1.69 5.44,-0.08l-0.42 0.44"/>
    <ellipse class="fil1 str1" cx="20.97" cy="6.58" rx="0.48" ry="0.47"/>
    <ellipse class="fil1 str1" cx="35.94" cy="21.67" rx="0.48" ry="0.47"/>
    <ellipse class="fil1 str1" cx="21.49" cy="15.95" rx="0.48" ry="0.47"/>
    <ellipse class="fil1 str1" cx="29.19" cy="15.97" rx="0.48" ry="0.47"/>
   </g>
  </g>
 </g>
</svg>
