<?xml version="1.0" encoding="UTF-8"?>
<!DOCTYPE svg PUBLIC "-//W3C//DTD SVG 1.1//EN" "http://www.w3.org/Graphics/SVG/1.1/DTD/svg11.dtd">
<!-- Creator: CorelDRAW 2021 (64 Bit) -->
<svg xmlns="http://www.w3.org/2000/svg" xml:space="preserve" width="720px" height="720px" version="1.1" style="shape-rendering:geometricPrecision; text-rendering:geometricPrecision; image-rendering:optimizeQuality; fill-rule:evenodd; clip-rule:evenodd"
viewBox="0 0 718.32 718.32"
 xmlns:xlink="http://www.w3.org/1999/xlink"
 xmlns:xodm="http://www.corel.com/coreldraw/odm/2003">
 <defs>
  <style type="text/css">
   <![CDATA[
    .str0 {stroke:white;stroke-width:19.95;stroke-miterlimit:22.9256}
    .fil0 {fill:none}
    .fil3 {fill:black}
    .fil2 {fill:blue}
    .fil5 {fill:#2A738F}
    .fil4 {fill:#CCCCCC}
    .fil1 {fill:yellow}
   ]]>
  </style>
 </defs>
 <g id="Camada_x0020_1">
  <metadata id="CorelCorpID_0Corel-Layer"/>
  <rect class="fil0 str0" x="9.98" y="9.98" width="698.36" height="698.36" rx="99.77" ry="84.24"/>
  <g id="_2308852940624">
   <path class="fil1" d="M355.92 460.16c6.7,1.3 11.3,3.25 10.8,11.26 -0.51,7.99 -5.5,10 -9.62,13.41 -7.61,6.31 -4.27,29.69 -4.27,41.52 0,7.94 1.97,38.19 -2.49,42.55 -5.24,5.12 -19.03,16.08 -27.34,18.72l-2.77 1.53c-3.05,3.36 -15.89,8.13 -19.72,8.64 -8.36,5.19 -29.55,8.14 -42.46,7.28l0.06 -22.58c3.74,-1.67 6.12,-0.92 10.1,-3.96 8.73,-6.68 6.73,-28.7 6.73,-38.21l-0.12 -44.93c-0.45,-6.1 -3.17,-7.19 -2.83,-11.03 -8.45,-0.85 -25.13,-4.2 -21.42,-16.38 0.58,-1.9 1.78,-3.42 4.01,-4.86 1.95,-1.26 4.47,-2.06 7.35,-2.63 9.77,-1.92 90.24,-1.69 93.99,-0.33zm261.29 -147.28c8.78,1.11 11.02,13.31 3.59,18.62 -4.98,3.56 -13.77,6.05 -19.02,10.92 -13.36,12.37 -14.54,30.81 -19.26,41.53l-0.57 2.74 -27.59 100.71c-2.93,-3.42 -7.53,-23.64 -9.32,-29.78 -2.93,-10.09 0.21,-17.04 4.43,-30.84 6.16,-20.18 10.4,-41.9 16.71,-62.11 9.17,-29.44 -14.46,-28.21 -20.45,-33.31 -3.6,-3.06 -4.92,-10.14 -1.2,-14.31 6.1,-6.84 22.08,-5.08 33.67,-5.11 8.33,-0.02 33.52,-1.85 39.01,0.94zm-289.19 20.36c-0.14,-1.83 -0.45,-1.15 1.76,-1.24 2.74,-2.68 9.86,-12.86 13.24,-14.1 11.03,-4.04 13.7,4.97 13.82,13.87 0.26,18.56 0,37.32 0,55.91 0,13.92 3.97,46.33 -17.1,36.9 -5.23,-2.34 -7.18,-12.47 -9.2,-18.71 -2.55,-7.88 -5.88,-13.19 -8.16,-19.83 -5.66,-8.09 -7.85,-14.91 -14.02,-22.52l-0.77 0c-6.71,0.52 -8.69,-3.63 -15.93,3.99 -2.94,3.09 -7.07,9.05 -13.47,7.93 -12.12,-2.12 -9.44,-21.73 -9.45,-34.71 -9.83,-2.49 -7.72,1.03 -7.73,-11.91 0,-12.65 -2.2,-10.32 7.63,-10.19 0.35,-8.33 -1.12,-33.26 0.94,-39.07 3.23,-9.06 18.45,-14.69 20.32,-0.96 1.81,2.26 2.03,4.79 2.77,7.48 3.33,12.26 8.44,20.97 14.01,31.08 1.23,2.22 1.95,3.18 3.52,5.39 2.33,3.28 2.62,3.65 2.13,5.64 7.03,2.94 6.94,3.56 15.69,5.05zm-98.22 242.3c1.96,0.34 9.86,5.9 11.61,7.17 0.8,7.56 1.05,17.52 -0.97,23.78l-1.09 -0.51c-5.78,-1.41 -4.18,0.62 -6.87,-1.42 -4.75,0.12 -22.79,-4.22 -26.28,-8.45 -4.25,0.62 -1.61,0.42 -2.01,-0.98 -4.19,0.59 -1.58,0.42 -2.06,-0.99 -4.07,0.59 -1.49,0.41 -2.38,-0.9 -9.7,-1.32 -23.56,-14.99 -30.05,-21.54 -4.68,-4.72 -6.09,-5.17 -7.63,-10.25 -3.08,0.78 -1.2,0.85 -2.08,-1.77 -6.38,-3.4 -18.59,-31.85 -21.8,-41.28 -10.84,-31.88 -10.19,-79.46 0.47,-111.51 4.05,-12.17 13.94,-34.52 21.28,-41.58 0.09,-2.46 -0.66,-2.39 1.38,-1.49 -0.71,-1.88 -1,-1.51 0.96,-1.02 1.36,-3.85 2.12,-4.66 6.19,-8.7l2.48 -2.2c0.89,-3.1 1.86,-5.37 5.4,-4.72 0.15,-0.2 0.42,-0.75 0.5,-0.58l12.68 -10.58c1.45,-2.17 0.16,-1.2 2.88,-1.85 2.69,-3.85 26.42,-14.12 32.09,-13.76 0.38,-3.53 6.65,-2.87 10.52,-3.11 6.48,-0.4 6.97,-2.23 11.26,1.16 -1.47,5.51 -0.37,14.15 -0.78,20.95 -3.62,2.71 -12.8,3.86 -16.19,15.77 -3.21,11.24 -1.65,79.74 -1.66,94.35 -0.03,29.76 -1.05,82.94 0.04,111.79 0.25,6.55 2.15,8.19 2.11,14.22zm111.07 -447.17c-0.21,5.2 -1.96,6.5 -2.02,12.87 -0.05,4.7 1.34,8.73 0.92,12.85 1.71,0.94 0.38,-1.73 2.61,2.54 0.7,1.35 0.57,1.86 0.83,3.22 2.58,1.22 5.08,4.5 7.41,6.53 10.72,9.32 21.86,12.58 24.98,15.15l32.01 13.72c1.8,1.1 0.52,0.08 1.66,1.32 3.04,-0.24 1.47,-0.6 1.99,1.06 3.15,-0.24 1.52,-0.45 2.02,0.87 3.25,-0.5 1.48,-0.62 2.22,0.88l2.05 0.95 3.75 2.15 1.97 0.97 1.92 1.15 3.12 1.86 1.54 0.53 1.19 1.22c6.68,2.83 14.06,11.3 18.92,16.83l0.12 0.36 2 2.03 0.85 1.11 0.69 1.27 0.69 1.31c1.55,-0.08 1.1,-0.33 0.6,1.29 1.81,-0.12 1.43,-0.5 0.95,1.29 1.77,-0.49 1.15,-0.71 1.36,1.33 5.98,5.38 12.39,23.51 14.08,34.07 1.13,7.12 1.24,15.58 0.42,23.06 -0.88,8.01 -3.29,13.55 -4.14,19.54 9.53,0.82 33.94,-1.92 40.06,1.93l3.52 1.21c1.73,4.05 8.56,11.25 -2.81,18.1 -15.66,9.43 -10.77,12.93 -2.46,44.11 6.01,22.53 14.39,48.19 19.34,71.16 0.7,3.24 1.51,3.44 2.8,7.77 0.75,2.5 1.82,6.17 2.47,8.58 1.74,6.47 3.38,11.38 5.08,17.6l9.82 35.33c0.38,4.06 -7.38,30.24 -8.9,35.93l-9.34 35.88 -53.67 -0.11c-1.8,-3.27 -3.91,-10.95 -5.26,-15.95 -0.92,-3.56 -1.94,-7.25 -3.01,-10.89 -1.03,-3.52 -0.8,-1.81 -1.7,-5.17l-7.55 -27.24 -8.71 -28.37c-3.74,-14.37 -37.59,-124.21 -37.51,-128.92 -1.48,0.13 -0.98,0.42 -1.3,-1.16 -5.36,0.39 -21.21,7.58 -38.83,5.95l0.16 -22.74c5.95,-2.24 7.23,-1.87 13.72,-4.97 5.13,-2.45 11.63,-5.66 13.89,-10.95 -2.01,-2.12 -5.57,-3.55 -8.52,-5.2 -3.85,-2.14 -5.33,-2.13 -6.07,-6.98 -1.3,-8.49 4.91,-13.61 12.04,-13.23 1.35,-1.16 -0.45,-0.48 1.89,-1.17 1.06,-0.31 1.56,-0.24 2.58,-0.34 -0.15,-3.03 -0.54,-3.21 -1.74,-4.89 -0.08,-0.12 -1.38,-1.65 -1.39,-1.66 -1.14,-1.27 -0.21,-0.43 -1.73,-1.75 -1.99,-2.89 -3.78,-4.63 -6.98,-6.5l-1.19 -0.88 -0.99 -0.89 -1.84 -1.27 -5.74 -3.12 -59.87 -28.95 -1.14 -0.81c-5.35,-2.31 -13.18,-8.28 -17.05,-11.91l-2.69 -2.34c-2.95,-2.37 -8.36,-6.43 -8.84,-10.08 -1.63,0.15 -1.33,0.51 -0.93,-1.07 -1.84,0.5 -1.45,0.77 -0.89,-1.07 -1.84,0.45 -1.34,0.66 -0.83,-1.24 -1.71,-0.14 -1.23,1.44 -1.35,-1.66 -1.77,0.37 -1.11,0.58 -1.24,-1.55 -3.93,-3.3 -9.22,-16.05 -10.99,-23.11 -2.68,-10.7 -3.47,-19.9 -2.87,-31.97 0.81,-16.11 10.58,-42.61 18.65,-49.6 0,-2.12 -0.63,-2.01 1.18,-1.31 -0.54,-1.73 -0.84,-1.35 0.95,-1.06 -0.41,-1.68 -0.76,-1.4 0.9,-1 -0.4,-1.86 -0.81,-1.58 0.99,-1.07 -0.58,-1.89 -0.92,-1.57 0.97,-1l0.7 -1.3c0.1,-0.16 0.26,-0.45 0.38,-0.63 2.5,-3.78 8.9,-8.55 12.66,-10.53l0.84 -0.87 1.2 -0.72 1.3 -0.82 4.72 -2.19c2.61,-2.28 12.17,-6.65 16.43,-6.35 1.48,-2.43 0.85,-2.89 5.2,-1.97 0.92,-2.48 -0.92,-0.35 1.89,-1.18 1.93,-0.58 -0.73,-0.37 2.32,0.21 0.57,-2.03 -0.81,-0.31 1.72,-1.07 2.14,-0.64 -1.27,-0.41 2.3,0.11 2.66,-2.99 18.15,-4.15 20.84,-2.75l-0.21 23.57c-1.8,1.09 -4.95,1.35 -7.37,2.45l-5.1 2.66c-6.85,3.39 -8.05,8.24 -11.61,9.65zm69.44 -31.22c3.69,0.89 8.1,2.85 12.03,4.47 6.62,2.72 6.85,1.9 14.31,3.1 -0.04,-1.76 -0.37,-1.29 1.47,-0.79 -0.52,-1.87 -0.91,-1.61 0.94,-1.02 -0.61,-1.98 -1.01,-1.52 1.02,-1.52 2.32,-7.52 22.22,-21.11 22.22,10.93 0,16.96 -0.02,33.92 -0.01,50.89 0.01,9.07 1.11,16.03 -3.98,21.78 -4.85,5.48 -12.71,5.22 -17.23,-0.35 -2.57,-3.16 -4.64,-14.39 -6.52,-19.62 -2.25,-6.25 -5.84,-11.73 -8.05,-16.5 -1.58,0 -1.17,0.33 -0.84,-1.33l-2.01 -2.79 -1.5 -1.68 -0.65 -1.28 -1.46 -1.62 -0.85 -1.16 -0.82 -1.1c-2.77,-2.7 -1.27,-0.42 -2.63,-3.58l-0.92 -0.86c-1.51,0.02 -1.18,0.38 -0.91,-1.13 -1.65,0.26 -1.35,0.63 -1.04,-0.98 -1.68,0.31 -1.32,0.64 -1.02,-1.05 -1.57,0.36 -1.2,0.71 -1.24,-0.85l-0.75 -0.97c-3.76,-1.51 -6.33,-4.49 -10.17,-6.84 -18.44,-11.26 -20.13,-3.05 -20.23,-13.86 -0.05,-4.9 -0.31,-12.16 0.53,-16.76 5.27,-0.17 20.91,2.76 27.21,5.11 0.29,0.11 1.3,0.54 1.52,0.63 0.19,0.08 0.64,0.59 0.78,0.36 0.14,-0.23 0.54,0.24 0.8,0.37zm-66.47 -31.04c-45.13,3.79 -76.43,10.49 -115.77,30.3 -66.42,33.47 -111.12,84.06 -140.98,152.34 -15.25,34.86 -22.55,80.24 -20.86,125.97 3.25,87.86 49.88,159.43 93.78,199.68 49.68,45.54 118.41,80.85 215.69,77.53 57.32,-1.96 118.01,-26.34 159.84,-58.52 27.87,-21.44 52.01,-46.35 70.63,-75.98 9.53,-15.16 17.64,-30.16 25.15,-48.63 15.39,-37.87 22.57,-78.12 20.82,-126.05 -3.19,-86.89 -50.69,-160.18 -93.99,-199.41 -54.26,-49.16 -133.5,-84.02 -214.31,-77.23z"/>
   <path class="fil2" d="M80.58 527.89l13.12 20.5c0.09,-0.17 0.36,0.46 0.56,0.66 -4.25,-8.13 -7.3,-10.17 -10.24,-15.51l-3.44 -5.65zm7.68 -350.08c-1.13,0.95 -0.77,0.45 -2.19,2.13 -0.96,1.13 -0.41,0.37 -1.26,1.73 -1.96,3.15 -1.34,1.88 -2.16,5.22 0.14,-0.21 0.35,-0.81 0.42,-0.65l1.61 -2.59c1.4,-2.56 1.06,-1.89 1.9,-4.48l1.08 1.95c1.07,4.27 1.45,1.02 -1.77,5.46 -1.47,2.02 -2.75,4.24 -3.9,6.12 -52.65,86.7 -60.49,198.16 -20.62,291.84 6.23,14.66 20.43,42.99 29.75,55.07l7.01 9.91c7.38,11.05 28.34,34.95 37.59,43.19 47.51,42.33 89.54,67.47 159.28,83.04 45.06,10.07 102.07,7.78 145.37,-3.95 22.31,-6.04 39.57,-12.47 59.11,-21.74 15.4,-7.31 37.65,-20.51 50.59,-30.06 18.33,-13.52 37.77,-31.47 52.55,-48.26 9.47,-10.76 13.71,-16.77 21.64,-28.2l13.34 -20.52c0.11,-0.17 0.28,-0.4 0.4,-0.57 15.52,-23.22 32.09,-71.34 37.91,-98.94 12.16,-57.65 6.79,-121.74 -13.29,-176.07 -3.81,-10.33 -7.97,-19.17 -12.39,-28.67 -4.16,-8.94 -8.99,-18.18 -13.72,-26l-12.01 -18.02c-12.76,-18.69 -22.03,-28.75 -36.7,-44.08 -1.86,-1.95 -3.39,-3.88 -5.3,-5.69 -19.13,-18.14 -25.22,-21.09 -45.04,-35.66 -8.09,-5.95 -16.68,-10 -25.18,-14.72 -25.99,-14.4 -59.45,-27.06 -89.19,-32.53 -92.39,-17 -180,2.38 -254.48,55.76l-43.23 37.57c-8.44,8.4 -31.51,36.67 -35.28,45.64 -4.68,-3.61 -0.84,-0.22 -1.84,-3.23zm71.38 -76.37c-4.61,1.79 -5.2,2.7 -8.54,5.92 -0.16,0.16 -0.44,0.45 -0.58,0.58l-1.15 1.23c1.59,-0.92 1.78,-0.91 2.92,-1.78l5.56 -4.52c1.21,-0.9 0.94,-0.6 1.79,-1.43zm381.11 -13.16c-1.49,-1.81 0.83,0.05 -2.23,-2.23 -1.88,-1.41 0.73,0.14 -2.05,-1.03 0.49,0.48 0.89,1.06 1.55,1.57 2.37,1.84 -0.81,0.21 2.73,1.69zm90.43 91.01l-5.98 -8.94c1.02,2.19 1.37,2.93 2.89,4.97l3.09 3.97zm9.6 344.95l0.47 -1.77 0.46 -1.52 1.06 -1.95 1.24 -1.77 1.15 -1.82 1.17 -1.86 1.21 -1.8 1.04 -1.87 1.01 -1.93 0.52 -1.76 -0.52 1.76 -1.01 1.93 -1.04 1.87 -1.21 1.8 -1.17 1.86 -1.15 1.82 -1.24 1.77 -1.06 1.95 -0.46 1.52 -0.47 1.77c-2.53,-1.36 -2.01,-1.56 -1.1,1.11 1.72,0 1.48,0.47 1.1,-1.11zm-14.61 21.72c2.09,-1.28 0.97,1.25 1.91,-1.65 1.41,0 1.08,0.3 0.66,-1.12 1.63,0.04 1.09,0.32 0.72,-1.53l1.35 -1.53c1.8,0.3 1.18,0.49 0.71,-1.51l0.26 -1.61 1.49 -1.5 1.45 -1.47 0.3 -1.84 1.52 -1.51 0.37 -1.54 1.4 -1.66 0.7 -1.38 -0.7 1.38 -1.4 1.66 -0.37 1.54 -1.52 1.51 -0.3 1.84 -1.45 1.47 -1.49 1.5 -0.26 1.61 -0.71 1.51c-1.9,0.07 -0.9,-1.01 -1.35,1.53 -1.7,-0.17 -1.12,-0.4 -0.72,1.53l-0.66 1.12c-3.38,-0.78 -1.63,-2.22 -1.91,1.65zm-107.41 97.64l-1.69 0.32 -1.83 1.14 -1.9 1.14 -1.78 1.23 -1.78 1.16 -2.14 0.88 -1.99 1.03 -2.04 0.93 -1.99 1.01 -2.09 0.9 -2.07 0.97 -2.11 0.83 -2.16 0.81 -2.17 1.1 2.17 -1.1 2.16 -0.81 2.11 -0.83 2.07 -0.97 2.09 -0.9 1.99 -1.01 2.04 -0.93 1.99 -1.03 2.14 -0.88 1.78 -1.16 1.78 -1.23 1.9 -1.14 1.83 -1.14 1.69 -0.32c1.88,0.57 1.57,1.1 1.57,-0.64 4.68,0.3 0.46,0.48 1.83,-1.18l1.94 -1.03c1.72,0.46 1.22,0.73 1.22,-1.13 -1.69,0.19 -1.47,-0.33 -1.22,1.13 -2.95,0.22 -1.88,-0.53 -1.94,1.03 -4.58,-0.81 -2.42,-1.16 -1.83,1.18l-1.57 0.64zm-174.92 -577.49c80.81,-6.79 160.05,28.07 214.31,77.23 43.3,39.23 90.8,112.52 93.99,199.41 1.75,47.93 -5.43,88.18 -20.82,126.05 -7.51,18.47 -15.62,33.47 -25.15,48.63 -18.62,29.63 -42.76,54.54 -70.63,75.98 -41.83,32.18 -102.52,56.56 -159.84,58.52 -97.28,3.32 -166.01,-31.99 -215.69,-77.53 -43.9,-40.25 -90.53,-111.82 -93.78,-199.68 -1.69,-45.73 5.61,-91.11 20.86,-125.97 29.86,-68.28 74.56,-118.87 140.98,-152.34 39.34,-19.81 70.64,-26.51 115.77,-30.3z"/>
   <path class="fil3" d="M162.07 561.45c-0.37,-2.29 2.71,-1.88 -2.08,-1.77 0.88,2.62 -1,2.55 2.08,1.77 1.54,5.08 2.95,5.53 7.63,10.25 6.49,6.55 20.35,20.22 30.05,21.54 4.69,-0.77 1.81,-0.56 2.38,0.9 4.42,-1.11 1.53,-0.54 2.06,0.99 4.19,-1.02 1.44,-0.5 2.01,0.98 2,-1.43 0.91,0.75 1.08,-3.69 0,-0.22 -0.01,-0.51 0,-0.75l0.37 -259.85c0.82,-2.98 -0.75,-1.08 1.75,-2.66 -4.63,0.32 1.58,-2.09 -7.45,1.66 -3.53,1.46 -5.88,3.08 -9.54,3.35 -1.61,2.5 1.55,0.93 -2.88,1.85l-12.68 10.58c-0.08,-0.17 -0.35,0.38 -0.5,0.58 -1.51,2.24 -2.95,3.58 -5.4,4.72l-2.48 2.2c-4.07,4.04 -4.83,4.85 -6.19,8.7 -1.96,-0.49 -1.67,-0.86 -0.96,1.02 -2.04,-0.9 -1.29,-0.97 -1.38,1.49 2.38,0 2.13,0.65 1.38,-1.49 1.97,0.8 1.53,1.03 0.96,-1.02l1.41 -0.06c-2.49,4.75 -0.49,0.69 -2.5,2.94 -1.01,1.13 -0.49,0.17 -1.44,1.82 -0.13,0.23 -0.25,0.64 -0.35,0.84l3.88 -1.27c0.1,-0.06 0.39,-0.23 0.47,-0.28 2.35,-1.45 -0.86,0 0.86,-0.49 -2.74,6.79 -0.97,81.67 -0.97,96.2 0,10.54 -0.93,93.9 0.46,96.8 1.24,1.42 0.14,-0.32 -0.2,0.35 -0.94,1.86 0.36,2.62 -1.83,1.8z"/>
   <path class="fil3" d="M468.23 573.24c1.35,5 3.46,12.68 5.26,15.95l53.67 0.11 9.34 -35.88c1.52,-5.69 9.28,-31.87 8.9,-35.93l-9.82 -35.33c-1.7,-6.22 -3.34,-11.13 -5.08,-17.6 -0.65,-2.41 -1.72,-6.08 -2.47,-8.58 -1.29,-4.33 -2.1,-4.53 -2.8,-7.77 -4.95,-22.97 -13.33,-48.63 -19.34,-71.16 -8.31,-31.18 -13.2,-34.68 2.46,-44.11 11.37,-6.85 4.54,-14.05 2.81,-18.1l-3.52 -1.21 -11.25 -0.81c-0.11,0.21 -0.22,0.53 -0.28,0.67 -1.17,2.66 -0.65,4.61 -1.32,2.83 -0.06,-0.15 -0.24,0.5 -0.4,0.7l-6.54 1.34c-1.04,80.68 -0.44,170.73 -0.04,252.89 0.07,15.45 1.1,11.77 -2.94,12.52l8.37 0.46c2.22,0.52 1.05,0.1 2.35,0.99l-5.8 1.61c-3.53,0.94 -4.65,2.81 -13.4,1.91l-2.85 -0.54 -3.2 -8.42c-0.53,-1.96 -1.34,-4.8 -2.11,-6.54z"/>
   <path class="fil3" d="M455.97 529.94l7.55 27.24c0.9,3.36 0.67,1.65 1.7,5.17 1.07,3.64 2.09,7.33 3.01,10.89 0.77,1.74 1.58,4.58 2.11,6.54l3.2 8.42 2.85 0.54c8.75,0.9 9.87,-0.97 13.4,-1.91l5.8 -1.61c-1.3,-0.89 -0.13,-0.47 -2.35,-0.99l-8.37 -0.46c4.04,-0.75 3.01,2.93 2.94,-12.52 -0.4,-82.16 -1,-172.21 0.04,-252.89l6.54 -1.34c0.16,-0.2 0.34,-0.85 0.4,-0.7 0.67,1.78 0.15,-0.17 1.32,-2.83 0.06,-0.14 0.17,-0.46 0.28,-0.67l11.25 0.81 3.52 1.21 -3.52 -1.21c-6.12,-3.85 -30.53,-1.11 -40.06,-1.93l-17.58 0.29 -3.49 0.24c0.32,0.16 0.69,0.28 0.99,0.37 0.29,0.09 0.62,0.24 0.99,0.34l5.65 0.85c1.6,0.13 3.87,0.36 6.06,0.48 -3.51,1.02 -2.29,-0.3 -2.88,3.3l-0.14 177.56c-2.34,1.27 -4.09,-2.4 -3.92,9.27 0.19,13.08 7.37,25.65 7.73,35.45 -2.46,-3.35 -0.19,-6.37 -5.02,-9.91z"/>
   <path class="fil3" d="M344.32 92.79c-0.38,0.28 -0.49,0.67 -2.33,1.21 -5.12,1.52 0.8,0.3 -1.69,-0.25 -0.17,0.12 -0.61,0.66 -2.36,1.15 -4.68,1.32 1.19,0.28 -1.85,-0.18 -1.56,1.62 2.1,-0.09 -2.52,1.59 -1.71,0.62 -1.81,0.28 -2.68,0.38 -4.26,-0.3 -13.82,4.07 -16.43,6.35l-4.72 2.19 -1.3 0.82 -1.2 0.72 -0.84 0.87 0.84 -0.87 1.2 -0.72 1.3 -0.82 4.72 -2.19c7.27,-1.74 2.97,-0.23 9.37,0.27 -2.55,5.9 -0.92,134.06 -0.92,152.84 -3.94,0.38 -3.03,-0.79 -2.77,4.83 -1.35,1.31 2.15,1.32 -2.3,0.97l-1.14 -0.81 1.14 0.81 59.87 28.95 5.74 3.12 1.84 1.27 0.99 0.89 1.19 0.88c3.2,1.87 4.99,3.61 6.98,6.5 -2.96,-2.54 -3.7,-3.79 -6.98,-6.5l-1.19 -0.88 -0.99 -0.89 -1.84 -1.27c-2.61,-1.16 -3.32,-1.82 -5.74,-3.12 -4.61,-3.32 -1.44,0.11 -2.81,-5.61 -1.47,-6.15 -0.81,-2.88 -0.05,-7.59 0.68,-4.19 -0.66,-3.44 -4.49,-4.44 0.17,-0.21 0.45,-0.8 0.51,-0.65l1.46 -79.47c1.29,-0.98 -1.57,-1.29 3.81,-1.47 -1.85,-1.17 -2.77,-1.22 -4.75,-2.2 0.51,-3.29 0.8,-2.14 0.04,-4.31 2.36,-1.3 4.66,1.29 4.17,-3.63 -3.12,-2.57 -14.26,-5.83 -24.98,-15.15 -2.33,-2.03 -4.83,-5.31 -7.41,-6.53 -1.79,-1.05 -0.56,1.56 -2.74,-2.57 -0.93,-1.77 -0.5,-1.62 -0.7,-3.19 -0.54,-0.54 -0.55,0.4 -1.63,-2.47 -1.45,-3.89 -1.56,-13.51 0.26,-18.71l2.47 -4.54c0.89,-4.8 5.51,-8.52 9.44,-10.56l12.39 -6.48 0.01 -19.96c-11.18,0 -12.85,2.79 -18.39,1.42z"/>
   <path class="fil3" d="M409.75 372.65c0.75,-6.44 0.31,-1.97 -1.31,-3.62l0.01 2.46c0.32,1.58 -0.18,1.29 1.3,1.16 -0.08,4.71 33.77,114.55 37.51,128.92l8.71 28.37c4.83,3.54 2.56,6.56 5.02,9.91 -0.36,-9.8 -7.54,-22.37 -7.73,-35.45 -0.17,-11.67 1.58,-8 3.92,-9.27l0.14 -177.56c0.59,-3.6 -0.63,-2.28 2.88,-3.3 -2.19,-0.12 -4.46,-0.35 -6.06,-0.48l-5.65 -0.85c-0.37,-0.1 -0.7,-0.25 -0.99,-0.34 -0.3,-0.09 -0.67,-0.21 -0.99,-0.37l-44.41 -0.48 -2.79 0.11c-1.02,0.1 -1.52,0.03 -2.58,0.34 -2.34,0.69 -0.54,0.01 -1.89,1.17 7.78,-0.05 13.14,0.65 20.44,1.02l-6.61 1.31c0.15,0.11 0.43,0.32 0.58,0.44 0.13,0.11 0.4,0.29 0.52,0.4 1.66,1.5 0.73,0.11 1.24,1.62l0.72 50.64c0.32,2.15 -0.19,0.61 0.34,2.5l0.92 4.9 -2.79 -2.96c-0.07,-0.33 -0.29,-0.4 -0.45,-0.59z"/>
   <path class="fil3" d="M224.5 320.41c-5.67,-0.36 -29.4,9.91 -32.09,13.76 -2.72,0.65 -1.43,-0.32 -2.88,1.85 4.43,-0.92 1.27,0.65 2.88,-1.85 3.66,-0.27 6.01,-1.89 9.54,-3.35 9.03,-3.75 2.82,-1.34 7.45,-1.66 -2.5,1.58 -0.93,-0.32 -1.75,2.66l-0.37 259.85c-0.01,0.24 0,0.53 0,0.75 -0.17,4.44 0.92,2.26 -1.08,3.69 -0.57,-1.48 2.18,-2 -2.01,-0.98 -0.53,-1.53 2.36,-2.1 -2.06,-0.99 -0.57,-1.46 2.31,-1.67 -2.38,-0.9 0.89,1.31 -1.69,1.49 2.38,0.9 0.48,1.41 -2.13,1.58 2.06,0.99 0.4,1.4 -2.24,1.6 2.01,0.98 3.49,4.23 21.53,8.57 26.28,8.45l6.52 -0.42c1.42,-3.95 0.81,-16.29 0,-21.32 -3.89,-0.73 -8.27,-4.23 -9.2,-7.28 -2.79,-2.73 -3.25,-7.63 -3.78,-12.23 -1.35,-11.53 -0.45,-156.35 -0.45,-176.63 0,-20.78 -1.05,-45.14 18.09,-47.08 -0.08,-3.61 0.02,-7.17 0.07,-10.8 0.04,-3.27 0.3,-6.7 -0.92,-9.8 -8.73,-3.16 -11.54,1.59 -18.31,1.41z"/>
   <path class="fil4" d="M82.65 186.89c-27.83,42.51 -48.88,104.42 -49.27,169.86 -0.4,67.2 19.25,125.25 47.2,171.14l3.44 5.65c2.94,5.34 5.99,7.38 10.24,15.51 3.54,3.94 6.74,9.19 10.49,13.76 21.93,26.69 46.8,49.67 75.98,68.72 35.55,23.22 76.73,40.37 120.6,48.14 7.8,1.38 39.11,3.94 42.65,5.31l31.37 0c5.44,-2.15 24.45,-2.64 32.34,-3.84 10.31,-1.57 19.86,-3.41 30.03,-5.97 9.38,-2.35 18.85,-5.03 27.65,-8.15 8.63,-3.06 18,-7.44 25.65,-9.97l2.17 -1.1 2.16 -0.81 2.11 -0.83 2.07 -0.97 2.09 -0.9 1.99 -1.01 2.04 -0.93 1.99 -1.03 2.14 -0.88 1.78 -1.16 1.78 -1.23 1.9 -1.14 1.83 -1.14 1.69 -0.32 1.57 -0.64c-0.59,-2.34 -2.75,-1.99 1.83,-1.18 0.06,-1.56 -1.01,-0.81 1.94,-1.03 -0.25,-1.46 -0.47,-0.94 1.22,-1.13l28.66 -19.75c4.76,-3.63 9.44,-7.51 14.01,-10.93 8.17,-6.1 6.47,-5.95 12.57,-11.37 11.67,-10.36 25.88,-25.71 35.4,-38.45 3.21,-4.3 6.69,-8.86 10.21,-13.16 0.28,-3.87 -1.47,-2.43 1.91,-1.65l0.66 -1.12c-0.4,-1.93 -0.98,-1.7 0.72,-1.53 0.45,-2.54 -0.55,-1.46 1.35,-1.53l0.71 -1.51 0.26 -1.61 1.49 -1.5 1.45 -1.47 0.3 -1.84 1.52 -1.51 0.37 -1.54 1.4 -1.66 0.7 -1.38 0.67 -0.76c-0.91,-2.67 -1.43,-2.47 1.1,-1.11l0.47 -1.77 0.46 -1.52 1.06 -1.95 1.24 -1.77 1.15 -1.82 1.17 -1.86 1.21 -1.8 1.04 -1.87 1.01 -1.93 0.52 -1.76 12.7 -28.97c7.73,-19.27 14.54,-44.23 17.83,-65.08 1.09,-6.95 2.92,-32.34 4.31,-36.36l0 -32.24c-3.58,-10.59 0.6,-72.06 -43.74,-147.6 -2.76,-4.71 -8.4,-12.73 -10.03,-16.65l-3.09 -3.97c-1.52,-2.04 -1.87,-2.78 -2.89,-4.97 -3.54,-3.55 -5.98,-7.34 -8.84,-11.37 -3,-4.2 -6.42,-7.59 -9.44,-11.51 -5.85,-7.58 -13.56,-15.49 -20.1,-21.82 -6.13,-5.94 -15.08,-14.55 -22.33,-19.59l-23.74 -17.78c-3.54,-1.48 -0.36,0.15 -2.73,-1.69 -0.66,-0.51 -1.06,-1.09 -1.55,-1.57 -3.31,-1.05 -7.28,-3.88 -10.15,-5.76l-30.65 -16.13c-76.74,-36.86 -179.23,-40 -257.64,-6.71 -30.09,12.78 -56.08,26.95 -78.39,45.02 -0.85,0.83 -0.58,0.53 -1.79,1.43l-5.56 4.52c-1.14,0.87 -1.33,0.86 -2.92,1.78 -2.82,4.2 -12.8,11.36 -16.89,15.37 -12.56,12.34 -34.93,38.34 -44.22,53.27 1,3.01 -2.84,-0.38 1.84,3.23 3.77,-8.97 26.84,-37.24 35.28,-45.64l43.23 -37.57c74.48,-53.38 162.09,-72.76 254.48,-55.76 29.74,5.47 63.2,18.13 89.19,32.53 8.5,4.72 17.09,8.77 25.18,14.72 19.82,14.57 25.91,17.52 45.04,35.66 1.91,1.81 3.44,3.74 5.3,5.69 14.67,15.33 23.94,25.39 36.7,44.08l12.01 18.02c4.73,7.82 9.56,17.06 13.72,26 4.42,9.5 8.58,18.34 12.39,28.67 20.08,54.33 25.45,118.42 13.29,176.07 -5.82,27.6 -22.39,75.72 -37.91,98.94 -0.12,0.17 -0.29,0.4 -0.4,0.57l-13.34 20.52c-7.93,11.43 -12.17,17.44 -21.64,28.2 -14.78,16.79 -34.22,34.74 -52.55,48.26 -12.94,9.55 -35.19,22.75 -50.59,30.06 -19.54,9.27 -36.8,15.7 -59.11,21.74 -43.3,11.73 -100.31,14.02 -145.37,3.95 -69.74,-15.57 -111.77,-40.71 -159.28,-83.04 -9.25,-8.24 -30.21,-32.14 -37.59,-43.19l-7.01 -9.91c-9.32,-12.08 -23.52,-40.41 -29.75,-55.07 -39.87,-93.68 -32.03,-205.14 20.62,-291.84 1.15,-1.88 2.43,-4.1 3.9,-6.12 3.22,-4.44 2.84,-1.19 1.77,-5.46l-1.08 -1.95c-0.84,2.59 -0.5,1.92 -1.9,4.48l-1.61 2.59c-0.07,-0.16 -0.28,0.44 -0.42,0.65z"/>
   <path class="fil3" d="M449.96 225.04c-4.86,-5.53 -12.24,-14 -18.92,-16.83l-1.19 -1.22 -1.54 -0.53 -3.12 -1.86 -1.92 -1.15 -1.97 -0.97 -3.75 -2.15 -2.05 -0.95 -2.22 -0.88 -2.02 -0.87 -1.99 -1.06c-5.92,-0.48 -1.45,-0.05 -5.29,0.79l-4.01 0.76c2.22,6.12 1.43,-3.38 2.85,4.94l0.05 95.87c-0.17,5.63 -1.1,6.27 -0.77,12.82l44.41 0.48 3.49 -0.24 0.2 -66.95c-2.61,-9.34 2.13,-6.94 -0.27,-12.47 -1.88,-4.31 -0.38,1.6 -1.76,-3.8l3.91 -1.34 0.85 1.11 0.69 1.27 0.69 1.31 0.6 1.29c-0.52,2.03 -1.02,1.77 0.95,1.29 -0.54,1.94 -0.79,1.33 1.36,1.33 -0.21,-2.04 0.41,-1.82 -1.36,-1.33 0.48,-1.79 0.86,-1.41 -0.95,-1.29 0.5,-1.62 0.95,-1.37 -0.6,-1.29l-0.69 -1.31 -0.69 -1.27 -0.85 -1.11 -2 -2.03c0.3,3.36 -0.89,1.89 -0.91,1.8l0.79 -2.16z"/>
   <path class="fil3" d="M162.28 362.8c0.57,2.05 1.01,1.82 -0.96,1.02 0.75,2.14 1,1.49 -1.38,1.49 -7.34,7.06 -17.23,29.41 -21.28,41.58 -10.66,32.05 -11.31,79.63 -0.47,111.51 3.21,9.43 15.42,37.88 21.8,41.28 4.79,-0.11 1.71,-0.52 2.08,1.77 2.19,0.82 0.89,0.06 1.83,-1.8 0.34,-0.67 1.44,1.07 0.2,-0.35 -1.39,-2.9 -0.46,-86.26 -0.46,-96.8 0,-14.53 -1.77,-89.41 0.97,-96.2 -1.72,0.49 1.49,-0.96 -0.86,0.49 -0.08,0.05 -0.37,0.22 -0.47,0.28l-3.88 1.27c0.1,-0.2 0.22,-0.61 0.35,-0.84 0.95,-1.65 0.43,-0.69 1.44,-1.82 2.01,-2.25 0.01,1.81 2.5,-2.94l-1.41 0.06z"/>
   <path class="fil3" d="M320.35 459.94l35.57 0.22c-3.75,-1.36 -84.22,-1.59 -93.99,0.33 -2.88,0.57 -5.4,1.37 -7.35,2.63 -2.23,1.44 -3.43,2.96 -4.01,4.86 -3.71,12.18 12.97,15.53 21.42,16.38 -0.34,3.84 2.38,4.93 2.83,11.03l0.12 44.93c0,9.51 2,31.53 -6.73,38.21 -3.98,3.04 -6.36,2.29 -10.1,3.96l-0.06 22.58c12.91,0.86 34.1,-2.09 42.46,-7.28l-5.17 1.1 5.19 -4c-3.8,-1.67 -0.93,-1.41 -5.11,-2.4 2.37,-2.05 2.82,-1.19 4.97,-2.29l0 -125.7 -4.72 -2.29c10.14,-0.24 4.59,-0.98 11.1,-2.13 3.79,-0.67 9.8,-0.61 13.58,-0.14z"/>
   <path class="fil3" d="M288.12 236.81c0.5,-1.84 0.89,-1.57 -0.93,-1.07 0.38,-1.75 0.8,-1.51 -0.89,-1.07 0.54,-1.94 1.05,-1.73 -0.83,-1.24 0,-3.4 0.13,-0.95 -1.35,-1.66 0.31,-2.02 0.77,-1.55 -1.24,-1.55 0.13,2.13 -0.53,1.92 1.24,1.55 0.12,3.1 -0.36,1.52 1.35,1.66 -0.51,1.9 -1.01,1.69 0.83,1.24 -0.56,1.84 -0.95,1.57 0.89,1.07 -0.4,1.58 -0.7,1.22 0.93,1.07 0.48,3.65 5.89,7.71 8.84,10.08l2.69 2.34c3.87,3.63 11.7,9.6 17.05,11.91l1.14 0.81c4.45,0.35 0.95,0.34 2.3,-0.97 -0.26,-5.62 -1.17,-4.45 2.77,-4.83 0,-18.78 -1.63,-146.94 0.92,-152.84 -6.4,-0.5 -2.1,-2.01 -9.37,-0.27l-4.72 2.19 -1.3 0.82 -1.2 0.72 -0.84 0.87c-3.76,1.98 -10.16,6.75 -12.66,10.53 -0.12,0.18 -0.28,0.47 -0.38,0.63l-0.7 1.3c-1.89,-0.57 -1.55,-0.89 -0.97,1 -1.8,-0.51 -1.39,-0.79 -0.99,1.07 -1.66,-0.4 -1.31,-0.68 -0.9,1 -1.79,-0.29 -1.49,-0.67 -0.95,1.06 -1.81,-0.7 -1.18,-0.81 -1.18,1.31 2.02,0.02 1.74,0.55 1.18,-1.31 1.81,0.65 1.35,0.86 0.95,-1.06 1.63,0.3 1.31,0.61 0.9,-1 1.89,0.39 1.57,0.76 0.99,-1.07 1.86,0.49 1.54,0.83 0.97,-1 1.05,-0.59 2.18,-1.19 2.74,-1.53 -2.51,3.33 -1.94,1.86 -1.77,6.53 -4.15,-1.07 -1.59,-1.71 -3.92,1.19 2.28,6.37 2.01,-9.41 1.92,9.95l0.2 93.67c1.33,6.17 6.3,7.34 2.04,8.78 -0.94,-2.64 2.3,-4.17 -4.27,-4.94 0.94,4.43 6.27,11.48 10.88,14.31 -2.8,-1.07 -8.92,-9.57 -12.36,-11.25z"/>
   <path class="fil3" d="M581.95 386.69c-1.06,-3.26 -0.35,-1.51 0.57,-2.74 0.32,-8.55 3,-10.1 2.27,-15.07l-0.54 -16.22c4.45,-9.16 1.08,2.83 2.18,-2.89 0,-5.99 -0.03,-11.98 0,-17.96 0.09,-20.61 -0.79,-7.7 -2.84,-13.97 2.01,-1.21 3.48,-0.84 6.58,-0.94l2 -3.68c9.08,-0.3 16.03,-1.09 25.04,-0.34 -5.49,-2.79 -30.68,-0.96 -39.01,-0.94 -11.59,0.03 -27.57,-1.73 -33.67,5.11 -3.72,4.17 -2.4,11.25 1.2,14.31 5.99,5.1 29.62,3.87 20.45,33.31 -6.31,20.21 -10.55,41.93 -16.71,62.11 -4.22,13.8 -7.36,20.75 -4.43,30.84 1.79,6.14 6.39,26.36 9.32,29.78l27.59 -100.71z"/>
   <path class="fil3" d="M300.51 597.79c3.83,-0.51 16.67,-5.28 19.72,-8.64 0.73,-2.6 -1.69,-1.64 2.77,-1.53 1.92,-4.05 2.31,-2.28 6.07,-5.12l5.66 -4.27c-0.93,-0.52 -0.22,-0.19 -1.59,-0.45 -4.52,-0.88 -3.32,-0.75 -5.31,0.46 1.33,-5.09 0.01,-100.95 0.21,-116.03 -3.91,-0.11 -7.5,1.13 -7.69,-2.27 -3.78,-0.47 -9.79,-0.53 -13.58,0.14 -6.51,1.15 -0.96,1.89 -11.1,2.13l4.72 2.29 0 125.7c-2.15,1.1 -2.6,0.24 -4.97,2.29 4.18,0.99 1.31,0.73 5.11,2.4l-5.19 4 5.17 -1.1z"/>
   <path class="fil3" d="M377.71 290.9c2.42,1.3 3.13,1.96 5.74,3.12l1.84 1.27 0.99 0.89 1.19 0.88c3.28,2.71 4.02,3.96 6.98,6.5 1.52,1.32 0.59,0.48 1.73,1.75 0.01,0.01 1.31,1.54 1.39,1.66 1.2,1.68 1.59,1.86 1.74,4.89l2.79 -0.11c-0.33,-6.55 0.6,-7.19 0.77,-12.82l-0.05 -95.87c-1.42,-8.32 -0.63,1.18 -2.85,-4.94l4.01 -0.76c3.84,-0.84 -0.63,-1.27 5.29,-0.79l1.99 1.06 2.02 0.87 2.22 0.88 2.05 0.95 3.75 2.15 1.97 0.97 1.92 1.15 3.12 1.86 1.54 0.53 1.19 1.22 -1.19 -1.22 -1.54 -0.53 -3.12 -1.86 -1.92 -1.15 -1.97 -0.97 -3.75 -2.15 -2.05 -0.95c-0.74,-1.5 1.03,-1.38 -2.22,-0.88 -0.5,-1.32 1.13,-1.11 -2.02,-0.87 -0.52,-1.66 1.05,-1.3 -1.99,-1.06 -1.14,-1.24 0.14,-0.22 -1.66,-1.32l-32.01 -13.72c0.49,4.92 -1.81,2.33 -4.17,3.63 0.76,2.17 0.47,1.02 -0.04,4.31 1.98,0.98 2.9,1.03 4.75,2.2 -5.38,0.18 -2.52,0.49 -3.81,1.47l-1.46 79.47c-0.06,-0.15 -0.34,0.44 -0.51,0.65 3.83,1 5.17,0.25 4.49,4.44 -0.76,4.71 -1.42,1.44 0.05,7.59 1.37,5.72 -1.8,2.29 2.81,5.61z"/>
   <path class="fil3" d="M323 587.62c-4.46,-0.11 -2.04,-1.07 -2.77,1.53l2.77 -1.53c8.31,-2.64 22.1,-13.6 27.34,-18.72 4.46,-4.36 2.49,-34.61 2.49,-42.55 0,-11.83 -3.34,-35.21 4.27,-41.52 4.12,-3.41 9.11,-5.42 9.62,-13.41 0.5,-8.01 -4.1,-9.96 -10.8,-11.26l-35.57 -0.22c0.19,3.4 3.78,2.16 7.69,2.27 -0.2,15.08 1.12,110.94 -0.21,116.03 1.99,-1.21 0.79,-1.34 5.31,-0.46 1.37,0.26 0.66,-0.07 1.59,0.45l-5.66 4.27c-3.76,2.84 -4.15,1.07 -6.07,5.12z"/>
   <path class="fil3" d="M322.38 386.04c2.28,6.64 5.61,11.95 8.16,19.83 2.02,6.24 3.97,16.37 9.2,18.71 21.07,9.43 17.1,-22.98 17.1,-36.9 0,-18.59 0.26,-37.35 0,-55.91 -0.12,-8.9 -2.79,-17.91 -13.82,-13.87 -3.38,1.24 -10.5,11.42 -13.24,14.1 0,2.42 0.56,1.98 -1.76,1.24 -5.78,2.95 1.38,0.13 -4.76,1.15 5.43,0.32 4.91,0.17 8.93,-0.91l-1.32 1.18c-0.21,0.18 -1.02,0.82 -1.23,0.99 -0.88,0.68 -0.63,0.36 -1.64,1.15l0.07 38.91c-0.18,0.09 -0.47,0.16 -0.57,0.19l-1.78 0.51c-0.18,0.05 -1.39,0.25 -2.64,0.67 1.02,2.85 4.22,9.35 4.56,7.64 0.03,-0.14 0.29,-0.09 0.42,-0.03l-2.69 4.48c-1.88,-3.82 0.49,-1.4 -2.99,-3.13z"/>
   <path class="fil3" d="M440.08 101.39c0.53,2.37 1.2,2.17 -1.02,1.52 0.61,1.88 0.95,1.57 -0.94,1.02 0.63,2.2 0.77,1.53 -1.47,0.79 -2.85,1.51 -5.16,1.13 -9.12,1.45 -0.01,7.4 -0.01,14.79 -0.04,22.2 -0.04,7.39 1.35,5.07 1.57,8.96 0.22,3.88 -1.92,4.61 -3.29,8.89l-0.1 0.97 0.84 1.33c2.21,4.77 5.8,10.25 8.05,16.5 1.88,5.23 3.95,16.46 6.52,19.62 4.52,5.57 12.38,5.83 17.23,0.35 5.09,-5.75 3.99,-12.71 3.98,-21.78 -0.01,-16.97 0.01,-33.93 0.01,-50.89 0,-32.04 -19.9,-18.45 -22.22,-10.93z"/>
   <path class="fil3" d="M292.66 120.1c0.57,1.83 0.89,1.49 -0.97,1 0.58,1.83 0.9,1.46 -0.99,1.07 0.41,1.61 0.73,1.3 -0.9,1 0.4,1.92 0.86,1.71 -0.95,1.06 0.56,1.86 0.84,1.33 -1.18,1.31 -8.07,6.99 -17.84,33.49 -18.65,49.6 -0.6,12.07 0.19,21.27 2.87,31.97 1.77,7.06 7.06,19.81 10.99,23.11 2.01,0 1.55,-0.47 1.24,1.55 1.48,0.71 1.35,-1.74 1.35,1.66 1.88,-0.49 1.37,-0.7 0.83,1.24 1.69,-0.44 1.27,-0.68 0.89,1.07 1.82,-0.5 1.43,-0.77 0.93,1.07 3.44,1.68 9.56,10.18 12.36,11.25 -4.61,-2.83 -9.94,-9.88 -10.88,-14.31 6.57,0.77 3.33,2.3 4.27,4.94 4.26,-1.44 -0.71,-2.61 -2.04,-8.78l-0.2 -93.67c0.09,-19.36 0.36,-3.58 -1.92,-9.95 2.33,-2.9 -0.23,-2.26 3.92,-1.19 -0.17,-4.67 -0.74,-3.2 1.77,-6.53 -0.56,0.34 -1.69,0.94 -2.74,1.53z"/>
   <path class="fil3" d="M450.08 225.4l-0.12 -0.36 -0.79 2.16c0.02,0.09 1.21,1.56 0.91,-1.8zm-0.08 86.59l17.58 -0.29c0.85,-5.99 3.26,-11.53 4.14,-19.54 0.82,-7.48 0.71,-15.94 -0.42,-23.06 -1.69,-10.56 -8.1,-28.69 -14.08,-34.07 -2.15,0 -1.9,0.61 -1.36,-1.33 -1.97,0.48 -1.47,0.74 -0.95,-1.29l-0.6 -1.29 -0.69 -1.31 -0.69 -1.27 -0.85 -1.11 -3.91 1.34c1.38,5.4 -0.12,-0.51 1.76,3.8 2.4,5.53 -2.34,3.13 0.27,12.47l-0.2 66.95z"/>
   <path class="fil3" d="M328.02 333.24c2.32,0.74 1.76,1.18 1.76,-1.24 -2.21,0.09 -1.9,-0.59 -1.76,1.24 -8.75,-1.49 -8.66,-2.11 -15.69,-5.05 -4.7,-1.18 -7.43,-2.74 -12.03,-2.75 -2.73,-0.2 -6.25,-1.06 -9.61,-1.69l2.95 1.24c2.15,1.07 1.1,0.87 1.1,0.87l3.09 0.81c-3.74,1.84 -1.41,-0.69 -1.47,3.28 -0.03,1.39 0.23,4.16 0.26,5.82 0.15,7.83 0.68,7.64 -1.09,9.78l1.39 1.04c0.19,0.14 0.47,0.33 0.67,0.49 6.83,5.32 1.59,1.8 2.81,5.31 0.69,1.98 4.29,4.96 5.76,7.09 1.96,-0.73 1.22,-0.71 0.65,1.42 1.69,-0.31 1.23,-0.53 0.76,1.21l0.79 1.41c6.17,7.61 8.36,14.43 14.02,22.52 3.48,1.73 1.11,-0.69 2.99,3.13l2.69 -4.48c-0.13,-0.06 -0.39,-0.11 -0.42,0.03 -0.34,1.71 -3.54,-4.79 -4.56,-7.64 1.25,-0.42 2.46,-0.62 2.64,-0.67l1.78 -0.51c0.1,-0.03 0.39,-0.1 0.57,-0.19l-0.07 -38.91c1.01,-0.79 0.76,-0.47 1.64,-1.15 0.21,-0.17 1.02,-0.81 1.23,-0.99l1.32 -1.18c-4.02,1.08 -3.5,1.23 -8.93,0.91 6.14,-1.02 -1.02,1.8 4.76,-1.15z"/>
   <path class="fil3" d="M582.52 383.95c-0.92,1.23 -1.63,-0.52 -0.57,2.74l0.57 -2.74c4.72,-10.72 5.9,-29.16 19.26,-41.53 5.25,-4.87 14.04,-7.36 19.02,-10.92 7.43,-5.31 5.19,-17.51 -3.59,-18.62 -9.01,-0.75 -15.96,0.04 -25.04,0.34l-2 3.68c-3.1,0.1 -4.57,-0.27 -6.58,0.94 2.05,6.27 2.93,-6.64 2.84,13.97 -0.03,5.98 0,11.97 0,17.96 -1.1,5.72 2.27,-6.27 -2.18,2.89l0.54 16.22c0.73,4.97 -1.95,6.52 -2.27,15.07z"/>
   <path class="fil3" d="M289.9 278.6c-1.87,-13.73 -17.09,-8.1 -20.32,0.96 -2.06,5.81 -0.59,30.74 -0.94,39.07l21.75 2.66 5.04 -0.78c-0.32,-0.1 -1.5,-0.38 -1.7,-0.46 -1.67,-0.68 -1.12,-0.48 -2.11,-1.21 -0.01,-2.33 -0.29,-6.8 0.18,-8.88 0.76,-3.32 1.76,-3.02 3.65,-5.39l-3.86 -1.69c-0.01,-2.48 0.25,-5.22 -0.35,-7.5 -0.06,-0.24 -0.18,-0.48 -0.25,-0.71l-0.82 -2.14c-0.53,-2.02 -0.45,-1.35 -0.41,-3.62l-0.84 0.13c-0.68,0.02 0.23,0.47 -1.22,-0.13 1.23,-2.33 0.81,-0.41 1.02,-4.13 4.97,3.8 0.92,3.83 2.5,2.14 -1.16,-3.88 -1.71,-3.45 -1.32,-8.32z"/>
   <path class="fil3" d="M408.45 371.49l-0.01 -2.46 -11.05 -30.25c-2.26,5.29 -8.76,8.5 -13.89,10.95 -6.49,3.1 -7.77,2.73 -13.72,4.97l-0.16 22.74c17.62,1.63 33.47,-5.56 38.83,-5.95z"/>
   <path class="fil3" d="M394.84 313.37c-7.13,-0.38 -13.34,4.74 -12.04,13.23 0.74,4.85 2.22,4.84 6.07,6.98 2.95,1.65 6.51,3.08 8.52,5.2l11.05 30.25c1.62,1.65 2.06,-2.82 1.31,3.62 0.16,0.19 0.38,0.26 0.45,0.59l2.79 2.96 -0.92 -4.9c-0.53,-1.89 -0.02,-0.35 -0.34,-2.5l-0.72 -50.64c-0.51,-1.51 0.42,-0.12 -1.24,-1.62 -0.12,-0.11 -0.39,-0.29 -0.52,-0.4 -0.15,-0.12 -0.43,-0.33 -0.58,-0.44l6.61 -1.31c-7.3,-0.37 -12.66,-1.07 -20.44,-1.02z"/>
   <path class="fil3" d="M300.3 325.44c-2.96,-2.91 -6.14,-0.94 -9.91,-4.15l-21.75 -2.66c-9.83,-0.13 -7.63,-2.46 -7.63,10.19 0.01,12.94 -2.1,9.42 7.73,11.91 7.33,-0.09 16.48,3.22 21.78,6.55 11.45,7.19 8.85,7.32 13.09,10.68 2.31,1.82 0.55,0.7 2.55,1.52 -0.64,1.94 -1.23,1.75 0.65,1.42 -0.61,1.74 -1.01,1.45 0.76,1.21l0.02 1.41 0.77 0 -0.79 -1.41c0.47,-1.74 0.93,-1.52 -0.76,-1.21 0.57,-2.13 1.31,-2.15 -0.65,-1.42 -1.47,-2.13 -5.07,-5.11 -5.76,-7.09 -1.22,-3.51 4.02,0.01 -2.81,-5.31 -0.2,-0.16 -0.48,-0.35 -0.67,-0.49l-1.39 -1.04c1.77,-2.14 1.24,-1.95 1.09,-9.78 -0.03,-1.66 -0.29,-4.43 -0.26,-5.82 0.06,-3.97 -2.27,-1.44 1.47,-3.28l-3.09 -0.81c0,0 1.05,0.2 -1.1,-0.87l-2.95 -1.24c3.36,0.63 6.88,1.49 9.61,1.69z"/>
   <path class="fil3" d="M307.59 363.52l-0.02 -1.41c-1.77,0.24 -1.37,0.53 -0.76,-1.21 -1.88,0.33 -1.29,0.52 -0.65,-1.42 -2,-0.82 -0.24,0.3 -2.55,-1.52 -4.24,-3.36 -1.64,-3.49 -13.09,-10.68 -5.3,-3.33 -14.45,-6.64 -21.78,-6.55 0.01,12.98 -2.67,32.59 9.45,34.71 6.4,1.12 10.53,-4.84 13.47,-7.93 7.24,-7.62 9.22,-3.47 15.93,-3.99z"/>
   <path class="fil3" d="M409.87 128.14l0.75 0.97c0.04,1.56 -0.33,1.21 1.24,0.85 -0.3,1.69 -0.66,1.36 1.02,1.05 -0.31,1.61 -0.61,1.24 1.04,0.98 -0.27,1.51 -0.6,1.15 0.91,1.13l0.92 0.86c1.36,3.16 -0.14,0.88 2.63,3.58l0.82 1.1 0.85 1.16 1.46 1.62 0.65 1.28 1.5 1.68 2.01 2.79c-0.33,1.66 -0.74,1.33 0.84,1.33l-0.84 -1.33 0.1 -0.97c-2.77,-1.35 -1.48,1.83 -2.11,-1.82l-1.5 -1.68 -0.65 -1.28 -1.46 -1.62 -0.85 -1.16 -0.82 -1.1 -2.63 -3.58 -0.92 -0.86 -0.91 -1.13c0.29,-1.64 0.61,-1.28 -1.04,-0.98 0.3,-1.74 0.68,-1.43 -1.02,-1.05l-1.24 -0.85 -0.75 -0.97 -5.41 -6.63c2.13,-1.31 0.68,-0.32 4.59,-1.09 0.11,-0.02 0.42,-0.03 0.59,-0.14 -2.47,-0.97 -1.69,0.56 -2.07,-6.96 -0.26,-5.25 -1.26,-1.01 -2.88,-4.94 2.95,-1.57 3.42,-1.1 7.68,-1.24 -0.16,-0.56 -0.69,-1.79 -0.72,-1.88l-0.82 -4.15c0,-0.04 0.03,-0.27 0.03,-0.31 0.01,-0.03 0.09,-0.24 0.09,-0.27 0.19,-3.36 1.7,4.53 -0.68,-1.55 -1.04,-2.64 -3.36,1 0.04,-1.83 -0.26,-0.13 -0.66,-0.6 -0.8,-0.37 -0.14,0.23 -0.59,-0.28 -0.78,-0.36 -0.22,-0.09 -1.23,-0.52 -1.52,-0.63 -6.3,-2.35 -21.94,-5.28 -27.21,-5.11 -0.84,4.6 -0.58,11.86 -0.53,16.76 0.1,10.81 1.79,2.6 20.23,13.86 3.84,2.35 6.41,5.33 10.17,6.84z"/>
   <path class="fil3" d="M409.87 128.14l0.75 0.97 1.24 0.85c1.7,-0.38 1.32,-0.69 1.02,1.05 1.65,-0.3 1.33,-0.66 1.04,0.98l0.91 1.13 0.92 0.86 2.63 3.58 0.82 1.1 0.85 1.16 1.46 1.62 0.65 1.28 1.5 1.68c0.63,3.65 -0.66,0.47 2.11,1.82 1.37,-4.28 3.51,-5.01 3.29,-8.89 -0.22,-3.89 -1.61,-1.57 -1.57,-8.96 0.03,-7.41 0.03,-14.8 0.04,-22.2 3.96,-0.32 6.27,0.06 9.12,-1.45 2.24,0.74 2.1,1.41 1.47,-0.79 1.89,0.55 1.55,0.86 0.94,-1.02 2.22,0.65 1.55,0.85 1.02,-1.52 -2.03,0 -1.63,-0.46 -1.02,1.52 -1.85,-0.59 -1.46,-0.85 -0.94,1.02 -1.84,-0.5 -1.51,-0.97 -1.47,0.79 -7.46,-1.2 -7.69,-0.38 -14.31,-3.1 -3.93,-1.62 -8.34,-3.58 -12.03,-4.47 -3.4,2.83 -1.08,-0.81 -0.04,1.83 2.38,6.08 0.87,-1.81 0.68,1.55 0,0.03 -0.08,0.24 -0.09,0.27 0,0.04 -0.03,0.27 -0.03,0.31l0.82 4.15c0.03,0.09 0.56,1.32 0.72,1.88 -4.26,0.14 -4.73,-0.33 -7.68,1.24 1.62,3.93 2.62,-0.31 2.88,4.94 0.38,7.52 -0.4,5.99 2.07,6.96 -0.17,0.11 -0.48,0.12 -0.59,0.14 -3.91,0.77 -2.46,-0.22 -4.59,1.09l5.41 6.63z"/>
   <path class="fil3" d="M224.5 320.41c6.77,0.18 9.58,-4.57 18.31,-1.41 1.22,3.1 0.96,6.53 0.92,9.8 -0.05,3.63 -0.15,7.19 -0.07,10.8 -19.14,1.94 -18.09,26.3 -18.09,47.08 0,20.28 -0.9,165.1 0.45,176.63 0.53,4.6 0.99,9.5 3.78,12.23 0.93,3.05 5.31,6.55 9.2,7.28 0.81,5.03 1.42,17.37 0,21.32l-6.52 0.42c2.69,2.04 1.09,0.01 6.87,1.42l1.09 0.51c2.02,-6.26 1.77,-16.22 0.97,-23.78 -1.75,-1.27 -9.65,-6.83 -11.61,-7.17 0.04,-6.03 -1.86,-7.67 -2.11,-14.22 -1.09,-28.85 -0.07,-82.03 -0.04,-111.79 0.01,-14.61 -1.55,-83.11 1.66,-94.35 3.39,-11.91 12.57,-13.06 16.19,-15.77 0.41,-6.8 -0.69,-15.44 0.78,-20.95 -4.29,-3.39 -4.78,-1.56 -11.26,-1.16 -3.87,0.24 -10.14,-0.42 -10.52,3.11z"/>
   <path class="fil3" d="M290.39 321.29c3.77,3.21 6.95,1.24 9.91,4.15 4.6,0.01 7.33,1.57 12.03,2.75 0.49,-1.99 0.2,-2.36 -2.13,-5.64 -1.57,-2.21 -2.29,-3.17 -3.52,-5.39 -5.57,-10.11 -10.68,-18.82 -14.01,-31.08 -0.74,-2.69 -0.96,-5.22 -2.77,-7.48 -0.39,4.87 0.16,4.44 1.32,8.32 -1.58,1.69 2.47,1.66 -2.5,-2.14 -0.21,3.72 0.21,1.8 -1.02,4.13 1.45,0.6 0.54,0.15 1.22,0.13l0.84 -0.13c-0.04,2.27 -0.12,1.6 0.41,3.62l0.82 2.14c0.07,0.23 0.19,0.47 0.25,0.71 0.6,2.28 0.34,5.02 0.35,7.5l3.86 1.69c-1.89,2.37 -2.89,2.07 -3.65,5.39 -0.47,2.08 -0.19,6.55 -0.18,8.88 0.99,0.73 0.44,0.53 2.11,1.21 0.2,0.08 1.38,0.36 1.7,0.46l-5.04 0.78z"/>
   <path class="fil3" d="M344.32 92.79c-3.57,-0.52 -0.16,-0.75 -2.3,-0.11 -2.53,0.76 -1.15,-0.96 -1.72,1.07 -3.05,-0.58 -0.39,-0.79 -2.32,-0.21 -2.81,0.83 -0.97,-1.3 -1.89,1.18 -4.35,-0.92 -3.72,-0.46 -5.2,1.97 0.87,-0.1 0.97,0.24 2.68,-0.38 4.62,-1.68 0.96,0.03 2.52,-1.59 3.04,0.46 -2.83,1.5 1.85,0.18 1.75,-0.49 2.19,-1.03 2.36,-1.15 2.49,0.55 -3.43,1.77 1.69,0.25 1.84,-0.54 1.95,-0.93 2.33,-1.21 5.54,1.37 7.21,-1.42 18.39,-1.42l-0.01 19.96 -12.39 6.48c-3.93,2.04 -8.55,5.76 -9.44,10.56l-2.47 4.54c-1.82,5.2 -1.71,14.82 -0.26,18.71 1.08,2.87 1.09,1.93 1.63,2.47 0.2,1.57 -0.23,1.42 0.7,3.19 2.18,4.13 0.95,1.52 2.74,2.57 -0.26,-1.36 -0.13,-1.87 -0.83,-3.22 -2.23,-4.27 -0.9,-1.6 -2.61,-2.54 0.42,-4.12 -0.97,-8.15 -0.92,-12.85 0.06,-6.37 1.81,-7.67 2.02,-12.87 3.56,-1.41 4.76,-6.26 11.61,-9.65l5.1 -2.66c2.42,-1.1 5.57,-1.36 7.37,-2.45l0.21 -23.57c-2.69,-1.4 -18.18,-0.24 -20.84,2.75z"/>
   <path class="fil5" d="M170.95 351.9c2.45,-1.14 3.89,-2.48 5.4,-4.72 -3.54,-0.65 -4.51,1.62 -5.4,4.72z"/>
  </g>
 </g>
</svg>
